<?xml version="1.0" encoding="utf-8"?>
<!-- Generator: Adobe Illustrator 21.0.0, SVG Export Plug-In . SVG Version: 6.00 Build 0)  -->
<svg version="1.1" id="Layer_1" xmlns="http://www.w3.org/2000/svg" xmlns:xlink="http://www.w3.org/1999/xlink" x="0px" y="0px"
	 viewBox="0 0 136.8 291.8" style="enable-background:new 0 0 136.8 291.8;" xml:space="preserve">
<style type="text/css">
	.st0{fill:#5F3A1B;}
	.st1{fill:#754E2D;}
	.st2{fill:#F6C6BA;}
	.st3{fill:#FAD2C5;}
	.st4{fill:#FAD2C0;}
	.st5{fill:#FFFFFF;}
	.st6{fill:#C2996F;}
	.st7{fill:#231F20;}
	.st8{fill:none;}
	.st9{fill:#895E3E;}
	.st10{fill:#414142;}
	.st11{fill:#2280A3;}
	.st12{fill:#BB2333;}
	.st13{fill:#E34B4D;}
	.st14{opacity:0.4;fill:#231F20;enable-background:new    ;}
	.st15{opacity:0.4;fill:none;stroke:#231F20;stroke-width:2;stroke-miterlimit:10;enable-background:new    ;}
</style>
<title>corps</title>
<path class="st0" d="M26.2,83l2.7,1.2v20.4l-5.4-2.3c-2.6-1.1-3.8-4.1-2.7-6.8c0,0,0-0.1,0-0.1l2.8-6.6l0.6-1.4L26.2,83z"/>
<path class="st0" d="M30.2,80.9l-1.1-0.5c0.1-1.1,0.3-2.3,0.7-3.4c0.1-0.2,0.1-0.5,0.2-0.7v1.3C29.9,78.7,30,79.8,30.2,80.9z"/>
<path class="st0" d="M54.7,76.7c0.1,0.3,0.1,0.6,0.1,0.9c0,3.1-2.5,5.6-5.6,5.6c-3.1,0-5.6-2.5-5.6-5.6S46,72,49.1,72
	c1,0,1.9,0.2,2.7,0.7c0.7-1.4,2.3-2,3.7-1.3s2,2.3,1.3,3.7C56.5,76,55.6,76.6,54.7,76.7L54.7,76.7z"/>
<path class="st0" d="M68.2,75.7L68.2,75.7l-0.1-0.2h0.1C68.2,75.6,68.2,75.6,68.2,75.7z"/>
<path class="st0" d="M94.8,73.9c0,1.1-0.6,2.1-1.6,2.5l0,0c-0.2,0.1-0.4,0.2-0.6,0.2c0.1,0.3,0.1,0.6,0.1,0.9c0,3.1-2.5,5.6-5.6,5.6
	c-3.1,0-5.6-2.5-5.6-5.6c0-3.1,2.5-5.6,5.6-5.6l0,0c0.9,0,1.7,0.2,2.5,0.6c0.8-1.4,2.5-1.9,3.8-1.1C94.3,71.9,94.8,72.9,94.8,73.9
	L94.8,73.9z"/>
<path class="st0" d="M106.1,80.9c0.2-1.1,0.3-2.2,0.3-3.3c0-1.3-0.1-2.5-0.4-3.8c0.2,0.5,0.4,1.1,0.6,1.6c0.5,1.6,0.7,3.2,0.7,4.9
	L106.1,80.9z"/>
<path class="st0" d="M112.7,100.7l-5.4,2.3V82.7l0.9-0.4l1.9-0.8l0.4,0.8l1.8,4.3l0,0l0.3,0.7l2.8,6.6c0.1,0.3,0.2,0.6,0.3,0.9
	C116.2,97.2,115,99.7,112.7,100.7z"/>
<path class="st0" d="M68.2,75.6c0-0.2,0-0.4-0.1-0.7c0,0.2,0,0.4-0.1,0.7l0,0v0.1h0.2C68.2,75.6,68.2,75.6,68.2,75.6z M106.4,73.1
	c-1-3.5-3-6.7-5.8-9.1c1.6,1.6,2.8,3.4,3.8,5.4C105.2,70.6,105.9,71.8,106.4,73.1L106.4,73.1L106.4,73.1z M85.4,59.2h0.3L85.7,59
	L85.4,59.2z M106.4,73.1c-1-3.5-3-6.7-5.8-9.1c1.6,1.6,2.8,3.4,3.8,5.4C105.2,70.6,105.9,71.8,106.4,73.1L106.4,73.1L106.4,73.1z
	 M85.4,59.2h0.3L85.7,59L85.4,59.2z M50.5,59l-0.1,0.2h0.3L50.5,59z M85.6,59l-0.2,0.2h0.3L85.6,59z M136.3,64.4l-16.6-40.2
	c-0.5-1.2-1.4-2.2-2.6-2.8c-1.4-0.7-3-0.7-4.4-0.1l-15.3,7L72.7,2.2c-1.1-1.2-2.7-2-4.3-2.1h-0.3c-1.6,0.2-3,0.9-4.1,2.1L42,25.3
	l-2.8,3h-0.1l-15.2-7c-1.3-0.6-2.9-0.6-4.2,0c-1.2,0.6-2.2,1.6-2.7,2.9L0.4,64.4c-1.2,2.8,0,6,2.7,7.3L23.6,81h0l1.5,0.7l0.7,0.3
	l2.8,1.3v-3.1c0-1,0.2-2,0.3-3l0,0c0.1-0.6,0.2-1.1,0.4-1.6c0.2-0.8,0.5-1.5,0.8-2.3c0.2-0.4,0.3-0.8,0.5-1.2
	c0.9-3.1,2.6-5.8,4.8-8.1l0,0c3.6-3.6,8.5-5.6,13.6-5.6h0.8c0.3,0,0.6,0,0.9,0.1c8.3,0.7,15.1,6.6,17,14.7h0.3V2.4
	c1.6,0.1,3.1,0.8,4.3,2l24.4,24.4l0.7-0.3l0.2-0.1l14.2-6.2c2.6-1.1,5.7,0.1,6.9,2.7L135,62.6c1.1,2.6-0.1,5.7-2.7,6.9l-20.1,8.7
	l-2.2,0.9l-1.9,0.8v3.4l2.2-1l0,0l0.6-0.2l0.3-0.1l1.5-0.7l0.4-0.2l20.4-9.3C136.3,70.5,137.5,67.2,136.3,64.4L136.3,64.4z
	 M34.8,32.6c-0.7,0.6-1,1.5-1,2.4c0,0.2,0,0.3,0,0.5c0,0.1,0,0.3,0.1,0.4l0,0c0,0.1,0.1,0.3,0.1,0.4l0,0v0.1l0,0
	c0,0.1,0,0.1,0.1,0.2l0,0c0,0,0,0.1,0,0.1c0,0,0,0,0,0.1V37l0.1,0.3v0.1l0.1,0.2c0.1,0.1,0.1,0.3,0.2,0.4l0.3,0.5
	c0.1,0.2,0.2,0.3,0.3,0.5L20.4,22.2c1.3-0.5,2.7-0.4,3.9,0.1l14.4,6.2L34.8,32.6z M85.4,59.2h0.3L85.7,59L85.4,59.2z M85.7,59
	l-0.2,0.2h0.3L85.7,59z M106.4,73.1c-1-3.5-3-6.7-5.8-9.1c1.6,1.6,2.8,3.4,3.8,5.4C105.2,70.6,105.9,71.8,106.4,73.1L106.4,73.1
	L106.4,73.1z M85.4,59.2h0.3L85.7,59L85.4,59.2z"/>
<path class="st1" d="M68.2,75.7L68.2,75.7l-0.1-0.8c0,0.2,0,0.4,0.1,0.7C68.2,75.6,68.2,75.6,68.2,75.7z"/>
<path class="st1" d="M94.8,73.9c0,1.1-0.6,2.1-1.6,2.5l0,0c-0.2,0.1-0.4,0.2-0.6,0.2c0.1,0.3,0.1,0.6,0.1,0.9c0,3.1-2.5,5.6-5.6,5.6
	c-3.1,0-5.6-2.5-5.6-5.6c0-3.1,2.5-5.6,5.6-5.6l0,0c0.9,0,1.7,0.2,2.5,0.6c0.8-1.4,2.5-1.9,3.8-1.1C94.3,71.9,94.8,72.9,94.8,73.9
	L94.8,73.9z"/>
<polygon class="st1" points="85.7,59 85.8,59.2 85.4,59.2 "/>
<path class="st1" d="M115.7,94.8L115.7,94.8c-0.4,1.6-1.5,2.9-3,3.6l-5.4,2.3l0,0V80.3l-1.2,0.5c0.2-1.1,0.3-2.2,0.3-3.3
	c0-1.3-0.1-2.5-0.4-3.8l0,0c0-0.1-0.1-0.2-0.1-0.3h0.1c-0.3-1.4-0.8-2.7-1.4-4c-0.9-2-2.2-3.8-3.8-5.4c2.8,2.4,4.8,5.6,5.8,9.1v0.1
	c0.5,1.7,0.7,3.5,0.7,5.2v2l0.8-0.4l1.9-0.8l1.2,2.8l1.3,3l2.8,6.6C115.8,92.6,115.9,93.7,115.7,94.8z"/>
<path class="st1" d="M94.8,73.9c0,1.1-0.6,2.1-1.6,2.5L91,71.3c0.3-0.1,0.7-0.2,1-0.2C93.5,71.1,94.8,72.3,94.8,73.9
	C94.8,73.9,94.8,73.9,94.8,73.9C94.8,73.9,94.8,73.9,94.8,73.9z"/>
<path class="st1" d="M107.3,78.4v2l0,0l-1.2,0.5c0.2-1.1,0.3-2.2,0.3-3.3c0-1.3-0.1-2.5-0.4-3.8l0,0c0-0.1-0.1-0.2-0.1-0.3h0.1
	c-0.3-1.4-0.8-2.7-1.4-4c-0.9-2-2.2-3.8-3.8-5.4c2.8,2.4,4.8,5.6,5.8,9.1v0.1C107,74.9,107.3,76.6,107.3,78.4z"/>
<path class="st2" d="M112.7,82.4c0,0.8-0.1,1.7-0.2,2.5c-0.1,0.5-0.2,1.1-0.3,1.6l0,0c-0.8,3.2-2.6,5.4-4.6,5.4h-0.3V80.3l-1.2,0.5
	c0.2-1.1,0.3-2.2,0.3-3.3c0-1.3-0.1-2.5-0.4-3.8l0,0c0-0.1-0.1-0.2-0.1-0.3h0.1c0.2-0.1,0.4-0.3,0.6-0.3l0,0v0.1
	c0.5,1.7,0.7,3.5,0.7,5.2v2l0.8-0.4l1.9-0.8l2.2-0.9c0.3,1,0.4,2,0.5,3.1C112.7,81.7,112.7,82,112.7,82.4z"/>
<path class="st3" d="M107.3,80.7v37.7c0,10.5-8.6,19.1-19.1,19.1h-20V80.3c1.5,10.5,11.2,17.8,21.7,16.3c5.6-0.8,10.5-4,13.6-8.8
	l0,0c1.4-2.1,2.3-4.5,2.7-7l1.2-0.5C107.3,80.4,107.3,80.6,107.3,80.7z"/>
<path class="st4" d="M68.4,73.2c-0.1,0.6-0.2,1.1-0.3,1.7c-0.1-0.6-0.2-1.1-0.3-1.7H68.4z"/>
<path class="st4" d="M68.2,75.7L68.2,75.7l-0.1-0.8c0,0.2,0,0.4,0.1,0.7C68.2,75.6,68.2,75.6,68.2,75.7z"/>
<path class="st4" d="M94.8,73.9c0,1.1-0.6,2.1-1.6,2.5l0,0c-0.2,0.1-0.4,0.2-0.6,0.2c0.1,0.3,0.1,0.6,0.1,0.9c0,3.1-2.5,5.6-5.6,5.6
	c-3.1,0-5.6-2.5-5.6-5.6c0-3.1,2.5-5.6,5.6-5.6l0,0c0.9,0,1.7,0.2,2.5,0.6c0.8-1.4,2.5-1.9,3.8-1.1C94.3,71.9,94.8,72.9,94.8,73.9
	L94.8,73.9z"/>
<path class="st4" d="M107.3,78.4v2l-1.2,0.5c0.2-1.1,0.3-2.2,0.3-3.3c0-1.3-0.1-2.5-0.4-3.8l0,0c0-0.1-0.1-0.2-0.1-0.3h0.1
	c-0.3-1.4-0.8-2.7-1.4-4c-0.9-2-2.2-3.8-3.8-5.4c2.8,2.4,4.8,5.6,5.8,9.1v0.1C107,74.9,107.3,76.6,107.3,78.4z"/>
<path class="st5" d="M68.2,75.7L68.2,75.7l-0.1-0.8c0,0.2,0,0.4,0.1,0.7C68.2,75.6,68.2,75.6,68.2,75.7z"/>
<path class="st5" d="M94.8,73.9c0,1.1-0.6,2.1-1.6,2.5l0,0c-0.2,0.1-0.4,0.2-0.6,0.2c0.1,0.3,0.1,0.6,0.1,0.9c0,3.1-2.5,5.6-5.6,5.6
	c-3.1,0-5.6-2.5-5.6-5.6c0-3.1,2.5-5.6,5.6-5.6l0,0c0.9,0,1.7,0.2,2.5,0.6c0.8-1.4,2.5-1.9,3.8-1.1C94.3,71.9,94.8,72.9,94.8,73.9
	L94.8,73.9z"/>
<polygon class="st5" points="85.7,59 85.8,59.2 85.4,59.2 "/>
<path class="st5" d="M106,73.8c0-0.1-0.1-0.2-0.1-0.3h0.1C105.9,73.6,106,73.7,106,73.8z"/>
<path class="st5" d="M68.2,75.7L68.2,75.7l-0.1-0.8c0,0.2,0,0.4,0.1,0.7C68.2,75.6,68.2,75.6,68.2,75.7z"/>
<path class="st6" d="M92.7,77.6c0,3.1-2.5,5.6-5.6,5.6c-3.1,0-5.6-2.5-5.6-5.6c0-3.1,2.5-5.6,5.6-5.6l0,0c2.7,0,5.1,2,5.5,4.7
	C92.7,76.9,92.7,77.2,92.7,77.6z"/>
<circle class="st7" cx="87.1" cy="77.6" r="4.9"/>
<path class="st5" d="M94.8,73.9c0,1.1-0.6,2.1-1.6,2.5l0,0c-0.4,0.2-0.8,0.3-1.2,0.3h-0.1c-1.5-0.1-2.7-1.3-2.7-2.8
	c0-0.2,0-0.5,0.1-0.7c0.1-0.2,0.1-0.5,0.3-0.7c0.7-1.4,2.4-1.9,3.8-1.1C94.3,71.9,94.9,72.9,94.8,73.9z"/>
<polyline class="st8" points="68.1,74.8 68.1,75.5 68.1,75.7 "/>
<polyline class="st8" points="68.1,74.8 68.1,75.5 68.1,75.7 "/>
<path class="st1" d="M54.7,76.7c0.1,0.3,0.1,0.6,0.1,0.9c0,3.1-2.5,5.6-5.6,5.6c-3.1,0-5.6-2.5-5.6-5.6S46,72,49.1,72
	c1,0,1.9,0.2,2.7,0.7c0.7-1.4,2.3-2,3.7-1.3s2,2.3,1.3,3.7C56.5,76,55.6,76.6,54.7,76.7L54.7,76.7z"/>
<path class="st1" d="M35.4,64c-2.3,2.3-3.9,5-4.8,8.1c-0.1,0.4-0.2,0.9-0.3,1.3c-0.2,0.9-0.3,1.9-0.4,2.9v1.3c0,1.1,0.1,2.2,0.3,3.3
	L29,80.4C29,81,29,81.6,29,82.3v18.4l-5.4-2.3c-1.3-0.5-2.3-1.6-2.8-2.8l0,0c-0.5-1.3-0.5-2.7,0-4l2.9-6.5l1.4-3.2l1.1-2.6l2.4,1.1
	l0.3,0.1v-2.7c0-0.1,0-0.3,0-0.4l0,0c0-0.3,0-0.6,0.1-0.9l0,0V76c0-0.2,0-0.4,0.1-0.6c0-0.2,0-0.2,0-0.3c0,0,0,0,0-0.1
	c0-0.3,0.1-0.5,0.2-0.8V74c0.1-0.3,0.2-0.6,0.2-0.9C30.6,69.6,32.6,66.4,35.4,64z"/>
<polygon class="st1" points="50.8,59.2 50.5,59.2 50.6,59 "/>
<path class="st1" d="M68.1,74.9v0.8h-0.1v-0.1l0,0C68.1,75.3,68.1,75.1,68.1,74.9z"/>
<path class="st9" d="M132.3,69.5l-20.1,8.7l-2.2,0.9l-1.9,0.8l-0.8,0.4v-2c0-1.8-0.2-3.5-0.7-5.2V73c-1-3.5-3-6.7-5.8-9.1l0,0
	c-3.6-3.6-8.5-5.6-13.6-5.6h-0.8c-0.3,0-0.6,0-0.9,0.1c-8.3,0.7-15.1,6.6-17,14.7h-0.3V2.4c1.6,0.1,3.1,0.8,4.3,2l24.4,24.4l0.6-0.3
	l4.1,4.1l0.2,0.3c0.1,0.2,0.3,0.4,0.4,0.6l0,0c0.3,0.7,0.5,1.5,0.3,2.2c0,0,0,0,0,0.1c0,0.1,0,0.2-0.1,0.3c0,0.1,0,0.2-0.1,0.3
	c0,0.1-0.1,0.2-0.1,0.3c0,0.1-0.1,0.2-0.1,0.3c-0.2,0.6-0.5,1.2-0.9,1.7l-0.2,0.3c-0.2,0.3-0.4,0.7-0.7,1l-0.2,0.3l16.1-17.9
	c1.1,0.5,2,1.5,2.5,2.6L135,62.6C136.1,65.3,134.9,68.3,132.3,69.5z"/>
<path class="st1" d="M68.1,2.4v70.7h-0.3c-1.9-8.1-8.7-14-17-14.7c-0.3,0-0.6-0.1-0.9-0.1h-0.8c-5.1,0-10,2-13.6,5.6l0,0
	c-2.8,2.4-4.8,5.6-5.8,9.1c-0.1,0.3-0.2,0.6-0.2,0.9v0.2c0,0.3-0.1,0.5-0.2,0.8c0,0,0,0,0,0.1c0,0.1,0,0.2,0,0.3
	c0,0.2-0.1,0.4-0.1,0.6c0,0.1,0,0.2,0,0.3l0,0c0,0.3,0,0.6-0.1,0.9l0,0c0,0.1,0,0.3,0,0.4v2.7l-0.3-0.1l-2.4-1.1l-2.2-0.9L4,69.4
	c-2.6-1.2-3.8-4.2-2.7-6.9L17.4,25c0.6-1.3,1.7-2.3,3-2.8l14.8,16.9c-0.1-0.2-0.2-0.3-0.3-0.5l-0.3-0.5c-0.1-0.1-0.1-0.3-0.2-0.4
	l-0.1-0.2v-0.1l-0.1-0.3V37c0,0,0,0,0-0.1c0,0,0-0.1,0-0.1l0,0c0-0.1-0.1-0.1-0.1-0.2l0,0v-0.1l0,0c0-0.1-0.1-0.3-0.1-0.4l0,0
	c-0.1-0.2-0.2-0.3-0.3-0.5c0-0.2,0-0.3,0-0.5c0-0.9,0.3-1.8,1-2.4l4-4l0.2,0.1l0.4,0.2L63.8,4.4C64.9,3.3,66.5,2.5,68.1,2.4z"/>
<path class="st1" d="M35.4,64c-2.3,2.3-3.9,5-4.8,8.1c-0.1,0.4-0.2,0.9-0.3,1.3c-0.2,0.9-0.3,1.9-0.4,2.9v1.3c0,1.1,0.1,2.2,0.3,3.3
	L29,80.4H29v-2.7c0-0.1,0-0.3,0-0.4l0,0c0-0.3,0-0.6,0.1-0.9l0,0V76c0-0.2,0-0.4,0.1-0.6c0-0.2,0-0.2,0-0.3c0,0,0,0,0-0.1
	c0-0.3,0.1-0.5,0.2-0.8V74c0.1-0.3,0.2-0.6,0.2-0.9C30.6,69.6,32.6,66.4,35.4,64z"/>
<path class="st2" d="M29.9,77.6c0,1.1,0.1,2.2,0.3,3.3L29,80.4C29,81,29,81.6,29,82.2V92h-0.3c-1.8,0-3.4-1.8-4.3-4.5l0,0
	c-0.3-0.8-0.5-1.7-0.6-2.5c-0.1-0.8-0.2-1.7-0.2-2.5c0-0.5,0-1,0-1.5c0.1-1,0.2-1.9,0.5-2.8l2.2,0.9l2.4,1.1l0.3,0.1v-2.7
	c0-0.1,0-0.3,0-0.4l0,0c0-0.3,0-0.6,0.1-0.9l0,0V76c0-0.2,0-0.4,0.1-0.6c0-0.2,0-0.2,0-0.3c0,0,0,0,0-0.1c0-0.3,0.1-0.5,0.2-0.8V74
	c0.1-0.3,0.2-0.6,0.2-0.9c0.2,0.1,0.3,0.1,0.4,0.2l0.2,0.1c-0.2,0.9-0.3,1.9-0.4,2.9C29.9,76.7,29.9,77.1,29.9,77.6z"/>
<path class="st4" d="M68.1,80.3v57.2h-20c-10.5,0-19.1-8.6-19.1-19.1V82.3c0-0.7,0-1.3,0.1-1.9l1.1,0.5c0.4,2.5,1.3,4.9,2.7,7l0,0
	c5.6,9,17.5,11.7,26.5,6C64.1,90.9,67.4,85.9,68.1,80.3L68.1,80.3z"/>
<path class="st4" d="M54.7,76.7c0.1,0.3,0.1,0.6,0.1,0.9c0,3.1-2.5,5.6-5.6,5.6c-3.1,0-5.6-2.5-5.6-5.6S46,72,49.1,72
	c1,0,1.9,0.2,2.7,0.7c0.7-1.4,2.3-2,3.7-1.3s2,2.3,1.3,3.7C56.5,76,55.6,76.6,54.7,76.7L54.7,76.7z"/>
<path class="st4" d="M35.4,64c-2.3,2.3-3.9,5-4.8,8.1c-0.1,0.4-0.2,0.9-0.3,1.3c-0.2,0.9-0.3,1.9-0.4,2.9v1.3c0,1.1,0.1,2.2,0.3,3.3
	L29,80.4C29,81,29,81.6,29,82.3v-4.6c0-0.1,0-0.3,0-0.4l0,0c0-0.3,0-0.6,0.1-0.9l0,0V76c0-0.2,0-0.4,0.1-0.6c0-0.2,0-0.2,0-0.3
	c0,0,0,0,0-0.1c0-0.3,0.1-0.5,0.2-0.8V74c0.1-0.3,0.2-0.6,0.2-0.9C30.6,69.6,32.6,66.4,35.4,64z"/>
<path class="st4" d="M68.1,74.9v0.8h-0.1v-0.1l0,0C68.1,75.3,68.1,75.1,68.1,74.9z"/>
<path class="st5" d="M106,73.8L106,73.8c0-0.1-0.1-0.2-0.1-0.3h0.1c-0.3-1.4-0.8-2.7-1.4-4c-0.9-2-2.2-3.8-3.8-5.4l0,0
	c-3.6-3.6-8.5-5.6-13.6-5.6h-0.8c-0.3,0-0.6,0-0.9,0.1c-8.3,0.7-15.1,6.6-17,14.7c-0.1,0.6-0.2,1.1-0.3,1.7c0,0.2,0,0.4,0.1,0.7v0.2
	h-0.2v-0.1l0,0c0-0.2,0-0.4,0.1-0.7c-0.1-0.6-0.2-1.1-0.3-1.7c-1.9-8.1-8.7-14-17-14.7c-0.3,0-0.6-0.1-0.9-0.1h-0.8
	c-5.1-0.1-10,1.9-13.7,5.5l0,0c-2.3,2.3-3.9,5-4.8,8.1c-0.1,0.4-0.2,0.9-0.3,1.3c-0.2,0.9-0.3,1.9-0.4,2.9v1.3
	c0,1.1,0.1,2.2,0.3,3.3c0.4,2.5,1.3,4.9,2.7,7l0,0c5.6,9,17.5,11.7,26.5,6c4.8-3,8-8,8.8-13.6c1.5,10.5,11.2,17.8,21.7,16.3
	c5.6-0.8,10.6-4,13.6-8.9l0,0c1.4-2.1,2.3-4.5,2.7-7c0.2-1.1,0.3-2.2,0.3-3.3C106.4,76.3,106.2,75,106,73.8z M50.6,59l0.2,0.2h-0.4
	L50.6,59z M54.7,76.7c0.1,0.3,0.1,0.6,0.1,0.9c0,3.1-2.5,5.6-5.6,5.6c-3.1,0-5.6-2.5-5.6-5.6S46,72,49.1,72c1,0,1.9,0.2,2.7,0.7
	c0.7-1.4,2.3-2,3.7-1.3s2,2.3,1.3,3.7C56.5,76,55.6,76.6,54.7,76.7L54.7,76.7z M85.7,59l0.1,0.2h-0.3L85.7,59z M93.2,76.5L93.2,76.5
	c-0.2,0.1-0.4,0.2-0.6,0.2c0.1,0.3,0.1,0.6,0.1,0.9c0,3.1-2.5,5.6-5.6,5.6c-3.1,0-5.6-2.5-5.6-5.6c0-3.1,2.5-5.6,5.6-5.6l0,0
	c0.9,0,1.7,0.2,2.5,0.6c0.8-1.4,2.5-1.9,3.8-1.1c1.4,0.8,1.9,2.5,1.1,3.8C94.2,75.8,93.8,76.2,93.2,76.5L93.2,76.5z"/>
<path class="st5" d="M54.7,76.7c0.1,0.3,0.1,0.6,0.1,0.9c0,3.1-2.5,5.6-5.6,5.6c-3.1,0-5.6-2.5-5.6-5.6S46,72,49.1,72
	c1,0,1.9,0.2,2.7,0.7c0.7-1.4,2.3-2,3.7-1.3s2,2.3,1.3,3.7C56.5,76,55.6,76.6,54.7,76.7L54.7,76.7z"/>
<polygon class="st5" points="50.8,59.2 50.5,59.2 50.6,59 "/>
<path class="st5" d="M68.1,74.9v0.8h-0.1v-0.1l0,0C68.1,75.3,68.1,75.1,68.1,74.9z"/>
<path class="st5" d="M68.1,74.9v0.8h-0.1v-0.1l0,0C68.1,75.3,68.1,75.1,68.1,74.9z"/>
<path class="st6" d="M54.8,77.6c0,3.1-2.5,5.7-5.6,5.8c-3.1,0-5.7-2.5-5.8-5.6c0-3.1,2.5-5.7,5.6-5.8c2.8,0,5.2,2,5.7,4.7
	C54.7,77,54.8,77.3,54.8,77.6z"/>
<circle class="st7" cx="49.1" cy="77.6" r="4.9"/>
<path class="st5" d="M57.2,73.9c0,1.4-1.1,2.6-2.5,2.8h-0.3c-0.1,0-0.3,0-0.4,0c-1.4-0.2-2.4-1.4-2.4-2.8c0-0.2,0-0.4,0.1-0.6
	c0-0.2,0.1-0.5,0.2-0.7c0.7-1.4,2.3-2,3.7-1.3C56.6,71.9,57.2,72.9,57.2,73.9L57.2,73.9z"/>
<polyline class="st8" points="68.1,75.7 68.1,75.5 68.1,74.8 "/>
<polyline class="st8" points="68.1,75.7 68.1,75.5 68.1,74.8 "/>
<path class="st2" d="M64.2,131.8c0,0,10.4-3.6,11.8-1L64.2,131.8z"/>
<path class="st0" d="M38.8,28.6c2.1-2.6,4.4-5.1,6.6-7.6s4.5-5,6.8-7.4s4.6-4.9,6.9-7.3l3.5-3.6C64.1,1.1,66,0.2,68,0h0.2
	c2,0.2,3.9,1.1,5.3,2.6l3.5,3.6c2.3,2.4,4.7,4.8,6.9,7.3s4.6,4.9,6.8,7.4s4.5,5,6.6,7.6c-2.6-2.1-5.1-4.4-7.6-6.6s-5-4.5-7.4-6.8
	l-7.3-6.9l-3.6-3.5c-0.9-1-2.2-1.6-3.5-1.6h0.2c-1.3,0.1-2.6,0.7-3.5,1.7l-3.6,3.5c-2.4,2.3-4.8,4.7-7.3,6.9s-4.9,4.6-7.4,6.8
	S41.4,26.4,38.8,28.6z"/>
<line class="st8" x1="39.1" y1="43.5" x2="35.3" y2="39.1"/>
<path class="st9" d="M35.3,39.1L20.4,22.2c1.3-0.5,2.7-0.4,3.9,0.1l14.4,6.2l-4,4C33,34.4,33.8,36.9,35.3,39.1z"/>
<path class="st1" d="M100.1,40.4c2-2.5,3.5-5.7,1.4-7.7l-4.1-4.1l0.2-0.1l14.2-6.2c1.4-0.6,3-0.6,4.4,0.1L100.1,40.4z"/>
<path class="st0" d="M37.9,42.2c-1.9-1.5-3.4-3.5-4.3-5.8c-0.2-0.6-0.3-1.3-0.3-1.9c0.1-0.7,0.3-1.4,0.7-1.9
	c0.4-0.6,0.8-0.9,1.2-1.4l1.2-1.3c3.2-3.5,6.5-7,9.8-10.4c3.3-3.5,6.6-6.9,9.9-10.3l5-5.1l1.3-1.3c0.5-0.5,1-1,1.5-1.4
	c1.2-0.8,2.6-1.3,4.1-1.5h0.2c1.5,0.1,2.9,0.6,4.1,1.4c0.6,0.4,1.1,0.9,1.5,1.4l1.3,1.3l5,5.1c3.3,3.4,6.7,6.8,9.9,10.3
	s6.6,6.9,9.8,10.4l1.2,1.3c0.4,0.5,0.8,0.8,1.2,1.4c0.4,0.6,0.7,1.2,0.7,1.9c0,0.7-0.1,1.3-0.3,1.9c-0.9,2.3-2.4,4.2-4.3,5.8
	c0.8-0.9,1.5-1.8,2.1-2.8c0.6-1,1.1-2,1.4-3.1c0.3-1,0.1-2.1-0.6-2.9c-0.3-0.4-0.8-0.8-1.2-1.2l-1.3-1.2c-3.5-3.3-7-6.5-10.4-9.8
	c-3.5-3.3-6.9-6.6-10.3-9.9l-5.1-5l-1.3-1.3c-0.3-0.4-0.7-0.7-1.1-1C69.9,3.4,69,3.1,68,3h0.2c-0.9,0.1-1.8,0.4-2.6,0.9
	c-0.4,0.3-0.8,0.6-1.1,1l-1.3,1.3l-5.1,5c-3.4,3.4-6.8,6.7-10.3,9.9s-6.9,6.6-10.4,9.8l-1.3,1.2c-0.4,0.4-0.9,0.8-1.2,1.2
	c-0.7,0.8-0.9,2-0.6,3c0.3,1.1,0.8,2.2,1.4,3.1C36.4,40.5,37.1,41.4,37.9,42.2z"/>
<path class="st10" d="M80.4,116.2c0.2,1.1-0.1,2.2-0.9,3c-0.7,0.8-1.6,1.4-2.5,1.8c-0.9,0.4-1.8,0.8-2.8,1c-0.9,0.2-1.9,0.4-2.8,0.5
	c-0.9,0.1-1.9,0.1-2.8,0.1c-0.9,0-1.9-0.1-2.8-0.2c-0.9-0.1-1.9-0.3-2.8-0.5c-0.5-0.1-0.9-0.2-1.4-0.4l-0.7-0.2l-0.3-0.1l-0.2-0.1
	h-0.1c0.1,0,0-0.4,0-0.2c0.1,0,0.1,0,0.1,0.1s0,0.1-0.1,0.1c0,0.2-0.1-0.2,0-0.2h5.4c1.8,0,3.6-0.1,5.4-0.3c1.8-0.1,3.6-0.5,5.3-1
	c0.9-0.3,1.7-0.7,2.4-1.2c0.7-0.5,1.2-1.3,1.4-2.2c0-0.1,0.1-0.1,0.1-0.1C80.4,116.1,80.4,116.1,80.4,116.2L80.4,116.2z"/>
<path class="st11" d="M113.2,179.6v46.6H23.6v-46.6c0.1-11.7,9-21.4,20.6-22.5l0,0c0.4,0,0.8-0.1,1.1-0.1h46.1
	C103.5,157.4,113.1,167.4,113.2,179.6z"/>
<path class="st11" d="M113.2,226v65.9H23.6V226c0-16.5,9-30.3,20.6-31.9l0,0c0.4,0,0.8-0.1,1.1-0.1h45.2c0.1,0,0.3,0,0.4,0l0,0
	c0.1,0,0.3,0,0.4,0l0,0C103.5,194.6,113.2,208.8,113.2,226z"/>
<path class="st12" d="M91.1,149.7c0,4.2,3.3,7.6-2.7,7.6H46.6c-6,0-2.7-3.4-2.7-7.6v-4.2c0-4.2-3.3-7.6,2.7-7.6h41.8
	c6,0,2.7,3.4,2.7,7.6L91.1,149.7z"/>
<path class="st13" d="M92.9,149.4c0,4.2,3.3,7.6-2.7,7.6H48.4c-6,0-2.7-3.4-2.7-7.6v-4.2c0-4.2-3.3-7.6,2.7-7.6h41.8
	c6,0,2.7,3.4,2.7,7.6L92.9,149.4z"/>
<path class="st12" d="M83.8,145.2l9.1-0.2l-0.2,0.2c0-0.9,0.1-1.7,0.3-2.6c0.2-0.8,0.4-1.7,0.5-2.5c0.1-0.4,0.1-0.8-0.1-1.1
	c-0.2-0.3-0.5-0.5-0.8-0.6c-0.8-0.2-1.6-0.2-2.4-0.1l0,0c-7,0.1-13.9,0.1-20.9,0.1s-13.9,0-20.9,0l0,0c-0.8-0.1-1.6-0.1-2.4,0.1
	c-0.3,0.1-0.6,0.3-0.7,0.5c-0.1,0.3-0.2,0.7-0.1,1c0.1,0.8,0.3,1.6,0.5,2.5c0.2,0.8,0.3,1.7,0.3,2.6l0,0l-0.7,6.8l-0.2-0.3l12.6,0.2
	l-12.6,0.3h-0.3v-0.3l0.6-6.8l0,0c0-0.8-0.1-1.6-0.3-2.4c-0.2-0.8-0.4-1.6-0.6-2.5c-0.1-0.5,0-1,0.1-1.5c0.2-0.5,0.7-0.9,1.2-1
	c0.9-0.2,1.8-0.3,2.7-0.2l0,0c7,0,13.9-0.1,20.9,0s13.9,0,20.9,0.1l0,0c0.9-0.1,1.8,0,2.6,0.2c0.5,0.1,0.9,0.5,1.1,0.9
	c0.2,0.4,0.2,0.9,0.1,1.4c-0.1,0.9-0.4,1.7-0.6,2.5c-0.2,0.8-0.3,1.6-0.4,2.5v0.2H93L83.8,145.2z"/>
<polygon class="st14" points="95.9,226.1 96.9,175 97.9,226.1 "/>
<polygon class="st14" points="37.9,226.1 38.9,175 39.9,226.1 "/>
<path class="st12" d="M62,190.8c-2.4,3-17.8-4.2-17.8-4.2V157h15.2C59.4,157,63,189.6,62,190.8z"/>
<path class="st13" d="M61.1,190.6c-0.4,3.4-16.1-4.5-16.1-4.5l0.3-29.5l13.3,1.2C58.6,157.8,62,183.3,61.1,190.6z"/>
<line class="st15" x1="38.9" y1="226.2" x2="38.9" y2="291.8"/>
<line class="st15" x1="96.9" y1="226.2" x2="96.9" y2="291.8"/>
</svg>
