<?xml version="1.0" encoding="utf-8"?>
<!-- Generator: Adobe Illustrator 21.0.0, SVG Export Plug-In . SVG Version: 6.00 Build 0)  -->
<svg version="1.1" id="Layer_1" xmlns="http://www.w3.org/2000/svg" xmlns:xlink="http://www.w3.org/1999/xlink" x="0px" y="0px"
	 viewBox="0 0 249.9 200.7" style="enable-background:new 0 0 249.9 200.7;" xml:space="preserve">
<style type="text/css">
	.st0{fill:#E6E7E8;}
	.st1{opacity:0.1;fill:#818485;enable-background:new    ;}
	.st2{fill:#424143;}
	.st3{fill:#FFFFFF;}
	.st4{fill:#447DAB;}
	.st5{fill:#F58D32;}
	.st6{fill:none;}
	.st7{fill:#5797CE;}
	.st8{fill:#231F20;}
	.st9{opacity:0.1;fill:#FFFFFF;enable-background:new    ;}
	.st10{fill:#333333;}
	.st11{clip-path:url(#SVGID_3_);}
</style>
<title>mac_vol</title>
<path class="st0" d="M168.2,200.6l-43.1-0.2h-0.4l-43.1,0.2c0,0,19-0.4,13.7-26.6h59.2C149.2,200.3,168.2,200.6,168.2,200.6z"/>
<path class="st1" d="M124.9,200.5h0.4l43.1,0.2c0,0-19-0.4-13.7-26.6H95.6"/>
<path class="st2" d="M12.8,0h224.4c7,0,12.8,5.7,12.8,12.8v149.7c0,7-5.7,12.8-12.8,12.8H12.8c-7,0-12.8-5.7-12.8-12.8V12.8
	C0,5.7,5.7,0,12.8,0z"/>
<rect x="11" y="9.4" class="st3" width="227.9" height="130.7"/>
<g>
	<circle class="st3" cx="148.7" cy="97" r="9.6"/>
	<circle class="st3" cx="97.3" cy="97" r="9.6"/>
	<path class="st4" d="M116.6,100.8L116.6,100.8c-2.5,0-4.6-2.1-4.6-4.6l0.3-36.5c0-2.5,2.1-4.5,4.6-4.5l0,0c2.5,0,4.5,2.1,4.5,4.6
		l-0.3,36.5C121.1,98.8,119.1,100.8,116.6,100.8z"/>
	<path class="st4" d="M104.4,110L104.4,110c-2.5,0-4.6-2.1-4.6-4.6V46.8c0-2.5,2.1-4.6,4.6-4.6l0,0c2.5,0,4.6,2.1,4.6,4.6v58.6
		C109,108,106.9,110,104.4,110z"/>
	<path class="st4" d="M91.6,110L91.6,110c-2.5,0-4.5-2.1-4.5-4.6L88,41.7c0-2.5,2.1-4.5,4.6-4.5c2.5,0,4.5,2.1,4.5,4.6l-1.1,63.6
		C96.1,108,94.1,110,91.6,110z"/>
	<path class="st5" d="M80.1,110c-2.5,0-4.5-2-4.6-4.5l-0.3-53.1c0-2.5,2-4.5,4.5-4.6l0,0c2.5,0,4.5,2,4.6,4.5l0.3,53.1
		C84.6,107.9,82.6,110,80.1,110z"/>
	<path class="st5" d="M85.4,116.1c-1.3,0-2.5-0.5-3.5-1.6L62.4,92.2c-1.9-1.7-2.1-4.6-0.4-6.5c1.7-1.9,4.6-2.1,6.5-0.4
		c0.3,0.3,0.5,0.5,0.8,0.9L89,108.5c1.6,2,1.5,4.9-0.5,6.5C87.5,115.7,86.4,116.1,85.4,116.1L85.4,116.1z"/>
	<circle class="st3" cx="97.6" cy="97" r="19.4"/>
	<path class="st5" d="M97.6,120.9c-13.2,0-23.9-10.8-23.9-23.9s10.8-23.9,23.9-23.9s23.9,10.8,23.9,23.9l0,0
		C121.4,110.1,110.8,120.9,97.6,120.9z M97.6,82.1c-8.1,0-14.7,6.6-14.7,14.7s6.6,14.7,14.7,14.7s14.7-6.6,14.7-14.7
		S105.7,82.1,97.6,82.1L97.6,82.1z"/>
	<line class="st6" x1="129.5" y1="97" x2="129.3" y2="60.3"/>
	<path class="st7" d="M129.5,101.5c-2.5,0-4.5-2-4.6-4.5l-0.1-36.7c0-2.5,2-4.5,4.5-4.6l0,0c2.5,0,4.5,2,4.6,4.5l0.3,36.5
		C134,99.4,132,101.5,129.5,101.5L129.5,101.5z"/>
	<line class="st6" x1="141.7" y1="106" x2="141.7" y2="47.6"/>
	<path class="st7" d="M141.7,110.6c-2.5,0-4.6-2.1-4.6-4.6V47.4c0-2.5,2.1-4.6,4.6-4.6l0,0c2.5,0,4.6,2.1,4.6,4.6V106
		C146.3,108.5,144.2,110.6,141.7,110.6z"/>
	<line class="st6" x1="154.5" y1="106" x2="153.4" y2="42.4"/>
	<path class="st7" d="M154.5,110.6c-2.5,0-4.5-2-4.6-4.5l-1.1-63.6c0-2.5,2-4.5,4.5-4.6h0.1c2.5,0,4.5,2,4.6,4.5l1.1,63.6
		C159.1,108.5,157.1,110.6,154.5,110.6L154.5,110.6z"/>
	<path class="st5" d="M166,110.6L166,110.6c-2.5,0-4.5-2.1-4.5-4.6l0.3-53.1c0-2.5,2.1-4.5,4.6-4.5l0,0c2.5,0,4.5,2.1,4.5,4.6
		l-0.4,53.1C170.5,108.5,168.5,110.6,166,110.6z"/>
	<path class="st5" d="M160.7,116.8c-2.5,0-4.5-2.1-4.5-4.6c0-1.1,0.4-2.1,1.1-2.9l19.7-22.3c1.5-2.1,4.3-2.7,6.4-1.3
		c2.1,1.5,2.7,4.3,1.3,6.4c-0.3,0.4-0.5,0.7-0.8,0.9l-19.7,22.3C163.2,116.1,162,116.8,160.7,116.8z"/>
	<circle class="st3" cx="148.6" cy="97.5" r="19.4"/>
	<path class="st5" d="M148.6,121.4c-13.3,0-23.9-10.8-23.9-23.9s10.8-23.9,23.9-23.9c13.2,0,23.9,10.8,23.9,23.9
		C172.4,110.8,161.8,121.4,148.6,121.4z M148.6,82.8c-8.1,0-14.7,6.6-14.7,14.7s6.6,14.7,14.7,14.7c8.1,0,14.7-6.6,14.7-14.7
		C163.4,89.4,156.7,82.8,148.6,82.8L148.6,82.8z"/>
	<circle class="st8" cx="148.6" cy="97.5" r="4.8"/>
	<circle class="st4" cx="148.6" cy="97.5" r="4.8"/>
	<circle class="st7" cx="97.3" cy="97.5" r="4.8"/>
</g>
<path class="st0" d="M249.9,149.9v12.3c-0.1,7-5.8,12.6-12.8,12.5H12.8c-7,0-12.7-5.6-12.8-12.5v-12.3H249.9z"/>
<rect x="81.8" y="200.2" class="st2" width="86.2" height="0.5"/>
<path class="st9" d="M12.8,0h224.4c7,0,12.7,5.7,12.8,12.8v149.7c0,7-5.7,12.7-12.8,12.8"/>
<g>
	<g>
		<g>
			<path id="SVGID_1_" class="st10" d="M132.2,159.6v3.4h-0.4v-2.5l-3.5,3.5v-3.5l-1.7,1.7l-0.4,0.4l-1.2,1.2
				c-0.1,0.1-0.2,0.1-0.2,0c-0.1-0.1-0.1-0.2,0-0.2l1.4-1.4l0.4-0.4l2-2v3.5L132.2,159.6z M131.8,163.7h0.4v-0.4h-0.4V163.7z
				 M126.6,160C126.6,159.9,126.6,159.9,126.6,160c-0.1-0.1-0.2-0.1-0.3-0.1l-3.2,3.2l0,0v-3.5l-0.3,0.4l0,0l-1.3,1.3l-1.2,1.2l0,0
				l-0.9,0.9c-0.1,0.1-0.1,0.2,0,0.2c0.1,0.1,0.2,0.1,0.2,0l0,0l3.2-3.2l0,0l0,0v3.5L126.6,160C126.6,160.1,126.6,160.1,126.6,160
				C126.7,160,126.7,160,126.6,160z"/>
		</g>
		<g>
			<defs>
				<path id="SVGID_2_" d="M132.2,159.6v3.4h-0.4v-2.5l-3.5,3.5v-3.5l-1.7,1.7l-0.4,0.4l-1.2,1.2c-0.1,0.1-0.2,0.1-0.2,0
					c-0.1-0.1-0.1-0.2,0-0.2l1.4-1.4l0.4-0.4l2-2v3.5L132.2,159.6z M131.8,163.7h0.4v-0.4h-0.4V163.7z M126.6,160
					C126.6,159.9,126.6,159.9,126.6,160c-0.1-0.1-0.2-0.1-0.3-0.1l-3.2,3.2l0,0v-3.5l-0.3,0.4l0,0l-1.3,1.3l-1.2,1.2l0,0l-0.9,0.9
					c-0.1,0.1-0.1,0.2,0,0.2c0.1,0.1,0.2,0.1,0.2,0l0,0l3.2-3.2l0,0l0,0v3.5L126.6,160C126.6,160.1,126.6,160.1,126.6,160
					C126.7,160,126.7,160,126.6,160z"/>
			</defs>
			<clipPath id="SVGID_3_">
				<use xlink:href="#SVGID_2_"  style="overflow:visible;"/>
			</clipPath>
			<g class="st11">
				<rect x="118.8" y="158.7" class="st10" width="14" height="6.5"/>
			</g>
		</g>
	</g>
</g>
</svg>
