<svg id="Layer_1" data-name="Layer 1" xmlns="http://www.w3.org/2000/svg" viewBox="0 0 157.74 41.94"><defs><style>.cls-1{fill:#f6c6ba;}.cls-2{fill:#fad2c5;}</style></defs><title>mains</title><path class="cls-1" d="M276.75,418.53a3.56,3.56,0,0,1-.28.59,4.42,4.42,0,0,1-2.66,2.28,4.47,4.47,0,0,1-3.5-.52,7.09,7.09,0,0,1-2-1.76,6.47,6.47,0,0,1-.44-.59,10,10,0,0,1-1.34-2.87c-1.17-4,.23-7.93,3.11-8.77l.31-.08h.23c2.73-.38,5.67,2.11,6.76,5.87A9,9,0,0,1,276.75,418.53Z" transform="translate(-227.05 -402.59)"/><path class="cls-1" d="M270.31,408v21.3a5.48,5.48,0,0,1-5.46,5.46H263a5.37,5.37,0,0,1-2.86-.82,5.07,5.07,0,0,1-1.15-1,5.39,5.39,0,0,1-1.45-3.68V408a5.26,5.26,0,0,1,.52-2.27,3.06,3.06,0,0,1,.29-.53,5.39,5.39,0,0,1,3.77-2.53,4.2,4.2,0,0,1,.87-.08h1.87a5.47,5.47,0,0,1,5.3,4.18h0A5.32,5.32,0,0,1,270.31,408Z" transform="translate(-227.05 -402.59)"/><path class="cls-1" d="M260.13,409.21V435a5.46,5.46,0,0,1-5.45,5.45h-1.87a5.36,5.36,0,0,1-2.88-.83l-.12-.08a5.44,5.44,0,0,1-2.45-4.54V409.21a5.25,5.25,0,0,1,.52-2.31,3.92,3.92,0,0,1,.29-.53,5.44,5.44,0,0,1,4.64-2.61h1.87a5.37,5.37,0,0,1,3.67,1.44,3.11,3.11,0,0,1,.32.31A5.38,5.38,0,0,1,260.13,409.21Z" transform="translate(-227.05 -402.59)"/><path class="cls-1" d="M250,410.38v27.91a5.16,5.16,0,0,1-.15,1.25,3.64,3.64,0,0,1-.2.64,5.45,5.45,0,0,1-5.11,3.57h-1.86a5.48,5.48,0,0,1-5.46-5.46V410.38a5.38,5.38,0,0,1,.28-1.71,3.46,3.46,0,0,1,.25-.6,5.46,5.46,0,0,1,4.93-3.14h1.86a5.36,5.36,0,0,1,3.67,1.44,2.33,2.33,0,0,1,.32.31A5.35,5.35,0,0,1,250,410.38Z" transform="translate(-227.05 -402.59)"/><path class="cls-1" d="M239.78,412.33v17.8a5.44,5.44,0,0,1-2.6,4.64,5.36,5.36,0,0,1-2.85.82h-1.87a5.48,5.48,0,0,1-5.41-5.46v-17.8a5.47,5.47,0,0,1,5.46-5.45h1.87a5.35,5.35,0,0,1,3.38,1.19,1.68,1.68,0,0,1,.29.25A5.41,5.41,0,0,1,239.78,412.33Z" transform="translate(-227.05 -402.59)"/><path class="cls-2" d="M270.31,408.82v21.3a5.48,5.48,0,0,1-5.46,5.41H263a5.37,5.37,0,0,1-2.86-.82,5.06,5.06,0,0,1-1.15-1,5.39,5.39,0,0,1-1.45-3.68v-21.3a5.32,5.32,0,0,1,.82-2.84,2.79,2.79,0,0,1,.32-.47,5.39,5.39,0,0,1,3.45-2.06,4.21,4.21,0,0,1,.87-.08h1.86a5.47,5.47,0,0,1,5.07,3.44A5.37,5.37,0,0,1,270.31,408.82Z" transform="translate(-227.05 -402.59)"/><path class="cls-2" d="M260.13,410v25.79a5.46,5.46,0,0,1-5.45,5.45h-1.87a5.34,5.34,0,0,1-3-.91l-.2-.14a5.43,5.43,0,0,1-2.25-4.4V410a5.32,5.32,0,0,1,.81-2.84,3.55,3.55,0,0,1,.32-.47,5.42,5.42,0,0,1,4.32-2.15h1.87a5.35,5.35,0,0,1,3.37,1.2,1.67,1.67,0,0,1,.29.25A5.41,5.41,0,0,1,260.13,410Z" transform="translate(-227.05 -402.59)"/><path class="cls-2" d="M250,411.16v27.91a5.06,5.06,0,0,1,0,.55,4.27,4.27,0,0,1-.12.7,5.48,5.48,0,0,1-5.34,4.21h-1.86a5.48,5.48,0,0,1-5.46-5.46V411.16a5.25,5.25,0,0,1,.52-2.31,3.12,3.12,0,0,1,.3-.53,5.44,5.44,0,0,1,4.64-2.61h1.86a5.37,5.37,0,0,1,3.38,1.19,1.67,1.67,0,0,1,.29.25A5.36,5.36,0,0,1,250,411.16Z" transform="translate(-227.05 -402.59)"/><path class="cls-2" d="M239.78,413.12v17.79a5.44,5.44,0,0,1-2.6,4.64,5.36,5.36,0,0,1-2.85.82h-1.87a5.48,5.48,0,0,1-5.41-5.46V413.12a5.48,5.48,0,0,1,5.46-5.46h1.87a5.29,5.29,0,0,1,3.13,1,1.08,1.08,0,0,1,.24.18A5.4,5.4,0,0,1,239.78,413.12Z" transform="translate(-227.05 -402.59)"/><path class="cls-1" d="M237.87,410.89c.21,3.87.22,7.73.25,11.6s0,7.73-.25,11.6c-.21-3.87-.22-7.73-.25-11.6S237.67,414.76,237.87,410.89Z" transform="translate(-227.05 -402.59)"/><path class="cls-1" d="M248.82,410.89q.14,3.32.19,6.63l.06,6.63,0,6.63q-.05,3.32-.19,6.63-.14-3.32-.19-6.63l-.06-6.63.06-6.63Q248.68,414.21,248.82,410.89Z" transform="translate(-227.05 -402.59)"/><path class="cls-1" d="M259,408.12q.14,3.32.19,6.63l.06,6.63-.06,6.63q0,3.32-.19,6.63-.14-3.32-.19-6.63l-.06-6.63.06-6.63Q258.84,411.43,259,408.12Z" transform="translate(-227.05 -402.59)"/><path class="cls-1" d="M345.3,415.66a10,10,0,0,1-1.34,2.87c-.14.21-.29.4-.44.59a7.25,7.25,0,0,1-2,1.76,4.25,4.25,0,0,1-6.17-1.76,6.36,6.36,0,0,1-.3-.59,9,9,0,0,1-.17-5.89,10.3,10.3,0,0,1,.58-1.53c1.35-2.88,3.85-4.66,6.19-4.34h.23l.31.08C345,407.73,346.46,411.65,345.3,415.66Z" transform="translate(-227.05 -402.59)"/><path class="cls-1" d="M354.26,408v21.3a5.34,5.34,0,0,1-1.45,3.68,4.82,4.82,0,0,1-1.15,1,5.36,5.36,0,0,1-2.85.82h-1.87a5.47,5.47,0,0,1-5.45-5.46v-21.3a5.32,5.32,0,0,1,.15-1.27h0a5.45,5.45,0,0,1,5.29-4.18h1.87a5.33,5.33,0,0,1,3,.88,5.27,5.27,0,0,1,1.69,1.73,3.91,3.91,0,0,1,.29.53A5.25,5.25,0,0,1,354.26,408Z" transform="translate(-227.05 -402.59)"/><path class="cls-1" d="M364.44,409.21V435a5.46,5.46,0,0,1-2.45,4.54l-.12.08a5.39,5.39,0,0,1-2.89.83h-1.86a5.47,5.47,0,0,1-5.46-5.45V409.21a5.07,5.07,0,0,1,.1-1,5.31,5.31,0,0,1,1.37-2.67,2.32,2.32,0,0,1,.32-.31,5.36,5.36,0,0,1,3.67-1.44H359a5.44,5.44,0,0,1,4.64,2.61,2.51,2.51,0,0,1,.29.53A5.13,5.13,0,0,1,364.44,409.21Z" transform="translate(-227.05 -402.59)"/><path class="cls-1" d="M374.62,410.38v27.91a5.48,5.48,0,0,1-5.46,5.46h-1.87a5.44,5.44,0,0,1-5.1-3.57,3.64,3.64,0,0,1-.2-.64,5.16,5.16,0,0,1-.15-1.25V410.38a5.38,5.38,0,0,1,1.46-3.7,3.11,3.11,0,0,1,.32-.31,5.37,5.37,0,0,1,3.67-1.44h1.87a5.46,5.46,0,0,1,4.93,3.13,3.13,3.13,0,0,1,.24.6A5.18,5.18,0,0,1,374.62,410.38Z" transform="translate(-227.05 -402.59)"/><path class="cls-1" d="M384.79,412.33v17.8a5.47,5.47,0,0,1-5.46,5.46h-1.86a5.36,5.36,0,0,1-2.85-.82,5.45,5.45,0,0,1-2.57-4.64v-17.8a5.4,5.4,0,0,1,1.79-4l.29-.25a5.44,5.44,0,0,1,3.38-1.18h1.86A5.46,5.46,0,0,1,384.79,412.33Z" transform="translate(-227.05 -402.59)"/><path class="cls-2" d="M354.26,408.82v21.3a5.34,5.34,0,0,1-1.45,3.68,4.82,4.82,0,0,1-1.15,1,5.36,5.36,0,0,1-2.85.82h-1.87a5.47,5.47,0,0,1-5.45-5.46v-21.3a5.37,5.37,0,0,1,.39-2,5.46,5.46,0,0,1,5.06-3.44h1.87a5.5,5.5,0,0,1,4.32,2.14,3.55,3.55,0,0,1,.32.47A5.32,5.32,0,0,1,354.26,408.82Z" transform="translate(-227.05 -402.59)"/><path class="cls-2" d="M364.44,410v25.79a5.45,5.45,0,0,1-2.25,4.4l-.2.14a5.37,5.37,0,0,1-3,.91h-1.86a5.47,5.47,0,0,1-5.46-5.45V410a5.07,5.07,0,0,1,.1-1,5.3,5.3,0,0,1,1.69-3,1.67,1.67,0,0,1,.29-.25,5.37,5.37,0,0,1,3.38-1.19H359a5.42,5.42,0,0,1,4.32,2.14,2.79,2.79,0,0,1,.32.47A5.24,5.24,0,0,1,364.44,410Z" transform="translate(-227.05 -402.59)"/><path class="cls-2" d="M374.62,411.16v27.91a5.48,5.48,0,0,1-5.46,5.46h-1.87a5.47,5.47,0,0,1-5.3-4.21,4.27,4.27,0,0,1-.12-.7,5.06,5.06,0,0,1,0-.55V411.16a5.41,5.41,0,0,1,1.78-4,1.67,1.67,0,0,1,.29-.25,5.35,5.35,0,0,1,3.38-1.19h1.87a5.44,5.44,0,0,1,4.64,2.6,3.92,3.92,0,0,1,.29.53A5.3,5.3,0,0,1,374.62,411.16Z" transform="translate(-227.05 -402.59)"/><path class="cls-2" d="M384.79,413.12v17.79a5.47,5.47,0,0,1-5.46,5.46h-1.86a5.36,5.36,0,0,1-2.85-.82,5.45,5.45,0,0,1-2.61-4.64V413.12a5.47,5.47,0,0,1,2.08-4.28l.24-.18a5.41,5.41,0,0,1,3.14-1h1.86A5.47,5.47,0,0,1,384.79,413.12Z" transform="translate(-227.05 -402.59)"/><path class="cls-1" d="M373.92,410.89c.21,3.87.22,7.73.25,11.6s0,7.73-.25,11.6c-.21-3.87-.22-7.73-.25-11.6S373.72,414.76,373.92,410.89Z" transform="translate(-227.05 -402.59)"/><path class="cls-1" d="M363,410.89q.14,3.32.19,6.63l.06,6.63-.06,6.63q-.05,3.32-.19,6.63-.14-3.32-.19-6.63l-.06-6.63.06-6.63Q362.84,414.21,363,410.89Z" transform="translate(-227.05 -402.59)"/><path class="cls-1" d="M352.81,408.12q.14,3.32.19,6.63l.06,6.63L353,428q0,3.32-.19,6.63-.14-3.32-.19-6.63l-.06-6.63.06-6.63Q352.67,411.43,352.81,408.12Z" transform="translate(-227.05 -402.59)"/></svg>