<svg id="Layer_1" data-name="Layer 1" xmlns="http://www.w3.org/2000/svg" viewBox="0 0 157.79 251.53"><defs><style>.cls-1{fill:#5f3817;}.cls-2{fill:#744c2c;}.cls-3{fill:#f6c6ba;}.cls-4{fill:#fad2c5;}.cls-5{fill:#fad1bf;}.cls-6{fill:#fff;}.cls-7{fill:#c2996f;}.cls-8{fill:#231f20;}.cls-9{fill:none;}.cls-10{fill:#895d3e;}.cls-11{fill:#404041;}.cls-12{fill:#bc2132;}.cls-13{fill:#e44b4c;}</style></defs><title>Nico1</title><path class="cls-1" d="M68.73,130.51l2.74,1.19v20.39l-5.4-2.34A5.22,5.22,0,0,1,63.33,143a.55.55,0,0,1,0-.1l2.84-6.55L66.8,135Z" transform="translate(-30.95 -47.47)"/><path class="cls-1" d="M72.67,128.31l-1.11-.48a18.69,18.69,0,0,1,.66-3.38c.07-.24.14-.48.22-.72,0,.43,0,.86,0,1.3A18.92,18.92,0,0,0,72.67,128.31Z" transform="translate(-30.95 -47.47)"/><path class="cls-1" d="M97.19,124.16a4.7,4.7,0,0,1,.08.88,5.62,5.62,0,1,1-2.9-4.91,2.8,2.8,0,1,1,2.82,4Z" transform="translate(-30.95 -47.47)"/><path class="cls-1" d="M110.73,123.13h-.1v-.19h.09C110.72,123,110.72,123.07,110.73,123.13Z" transform="translate(-30.95 -47.47)"/><path class="cls-1" d="M137.35,121.37a2.79,2.79,0,0,1-1.61,2.53h0a2.59,2.59,0,0,1-.59.2,4.65,4.65,0,0,1,.09.94,5.62,5.62,0,1,1-5.62-5.61,5.54,5.54,0,0,1,2.46.57,2.8,2.8,0,0,1,2.46-1.45A2.81,2.81,0,0,1,137.35,121.37Z" transform="translate(-30.95 -47.47)"/><path class="cls-1" d="M148.59,128.31a18.92,18.92,0,0,0,.28-3.28,18.17,18.17,0,0,0-.38-3.77,16.58,16.58,0,0,1,.55,1.63,18.49,18.49,0,0,1,.74,4.9Z" transform="translate(-30.95 -47.47)"/><path class="cls-1" d="M155.19,148.18l-5.4,2.34V130.13l.87-.38,1.87-.81.36.83,1.85,4.26h0l.32.74,2.84,6.55a4.81,4.81,0,0,1,.29.9A5.22,5.22,0,0,1,155.19,148.18Z" transform="translate(-30.95 -47.47)"/><path class="cls-1" d="M110.71,123c0-.22-.05-.44-.09-.66,0,.22-.06.45-.09.67v0s0,.09,0,.14h.16C110.72,123.07,110.72,123,110.71,123ZM149,120.54a19.13,19.13,0,0,0-5.78-9.08,19.11,19.11,0,0,1,3.78,5.4,19.62,19.62,0,0,1,2,3.68l0,.05S149,120.56,149,120.54Zm-21.09-13.86h.32l-.09-.23ZM149,120.54a19.13,19.13,0,0,0-5.78-9.08,19.11,19.11,0,0,1,3.78,5.4,19.62,19.62,0,0,1,2,3.68l0,.05S149,120.56,149,120.54Zm-21.09-13.86h.32l-.09-.23Zm-34.86-.23-.09.23h.32Zm35.09,0-.23.23h.32Zm50.67,5.41-16.58-40.2a5.39,5.39,0,0,0-2.6-2.81,5,5,0,0,0-4.35-.08l-15.26,7L115.23,49.63a6.75,6.75,0,0,0-4.34-2.09l-.27,0a6.76,6.76,0,0,0-4.08,2.06l-22,23.15-2.82,3-.1,0L66.47,68.78a5,5,0,0,0-4.25,0,5.4,5.4,0,0,0-2.7,2.85l-16.57,40.2a5.69,5.69,0,0,0,2.74,7.31l20.38,9.31.05,0,1.48.67.74.34,2.77,1.27v-2.1c0-.35,0-.7,0-1a18.48,18.48,0,0,1,.35-3,0,0,0,0,1,0,0c.1-.55.23-1.09.38-1.63a19.22,19.22,0,0,1,.77-2.29c.16-.41.34-.8.52-1.2a19.22,19.22,0,0,1,4.81-8.1l0,0a19.16,19.16,0,0,1,13.59-5.63l.85,0a8.24,8.24,0,0,1,.88.06,19.11,19.11,0,0,1,17,14.72l.31,0V49.88a6.8,6.8,0,0,1,4.27,2l24.44,24.44L140,76l.18-.08,14.18-6.16a5.24,5.24,0,0,1,6.85,2.7l16.32,37.61a5.22,5.22,0,0,1-2.7,6.85l-20.12,8.73-2.18.95-1.91.83c0,.42,0,.84,0,1.27v2.1l2.23-1h0l.55-.25.3-.13,1.46-.67.45-.2,20.44-9.33A5.7,5.7,0,0,0,178.84,111.87ZM77.28,80.06a3.33,3.33,0,0,0-1,2.43,3.66,3.66,0,0,0,0,.5,4.1,4.1,0,0,0,.07.43.1.1,0,0,0,0,0,4,4,0,0,0,.12.44v0l0,.09,0,0a1.18,1.18,0,0,0,.07.22l0,0a.81.81,0,0,0,0,.13.13.13,0,0,0,0,.07l0,.08.12.28,0,.1.09.2a4,4,0,0,0,.21.41l.3.52c.09.16.2.32.3.48L63,69.67a5.21,5.21,0,0,1,3.91.09L81.31,76Zm50.67,26.63h.32l-.09-.23Zm.23-.23-.23.23h.32ZM149,120.54a19.13,19.13,0,0,0-5.78-9.08,19.11,19.11,0,0,1,3.78,5.4,19.62,19.62,0,0,1,2,3.68l0,.05S149,120.56,149,120.54Zm-21.09-13.86h.32l-.09-.23Z" transform="translate(-30.95 -47.47)"/><path class="cls-2" d="M110.73,123.13h-.1v-.84c0,.22.06.44.09.66C110.72,123,110.72,123.07,110.73,123.13Z" transform="translate(-30.95 -47.47)"/><path class="cls-2" d="M137.35,121.37a2.79,2.79,0,0,1-1.61,2.53h0a2.59,2.59,0,0,1-.59.2,4.65,4.65,0,0,1,.09.94,5.62,5.62,0,1,1-5.62-5.61,5.54,5.54,0,0,1,2.46.57,2.8,2.8,0,0,1,2.46-1.45A2.81,2.81,0,0,1,137.35,121.37Z" transform="translate(-30.95 -47.47)"/><polygon class="cls-2" points="97.22 58.98 97.32 59.21 97 59.21 97.22 58.98"/><path class="cls-2" d="M158.18,142.21h0v0a5.24,5.24,0,0,1-3,3.6l-5.39,2.34h0v-20c0-.13,0-.25,0-.38l-1.2.52a18.92,18.92,0,0,0,.28-3.28,18.17,18.17,0,0,0-.38-3.77,0,0,0,0,0,0,0c0-.1-.08-.2-.13-.3l.06,0a18.74,18.74,0,0,0-1.37-4,19.11,19.11,0,0,0-3.78-5.4,19.13,19.13,0,0,1,5.78,9.08s0,0,0,.05a18.64,18.64,0,0,1,.73,5.22v2l.83-.36,1.91-.83,1.21,2.79,1.32,3,2.84,6.55A5.17,5.17,0,0,1,158.18,142.21Z" transform="translate(-30.95 -47.47)"/><path class="cls-2" d="M137.35,121.37a2.79,2.79,0,0,1-1.61,2.53l-2.24-5.15a2.86,2.86,0,0,1,1-.2A2.81,2.81,0,0,1,137.35,121.37Z" transform="translate(-30.95 -47.47)"/><path class="cls-2" d="M149.79,125.82v2h0l-1.2.52a18.92,18.92,0,0,0,.28-3.28,18.17,18.17,0,0,0-.38-3.77,0,0,0,0,0,0,0c0-.1-.08-.2-.13-.3l.06,0a18.74,18.74,0,0,0-1.37-4,19.11,19.11,0,0,0-3.78-5.4,19.13,19.13,0,0,1,5.78,9.08s0,0,0,.05A18.64,18.64,0,0,1,149.79,125.82Z" transform="translate(-30.95 -47.47)"/><path class="cls-3" d="M155.24,129.9a17.64,17.64,0,0,1-.18,2.53,13.75,13.75,0,0,1-.32,1.58v0h0c-.82,3.22-2.57,5.45-4.6,5.45l-.34,0h0v-11.3c0-.13,0-.25,0-.38l-1.2.52a18.92,18.92,0,0,0,.28-3.28,18.17,18.17,0,0,0-.38-3.77,0,0,0,0,0,0,0c0-.1-.08-.2-.13-.3l.06,0a3,3,0,0,1,.62-.34h0s0,0,0,.05a18.64,18.64,0,0,1,.73,5.22v2l.83-.36,1.91-.83,2.18-.95a16.09,16.09,0,0,1,.49,3.06C155.22,129.11,155.24,129.51,155.24,129.9Z" transform="translate(-30.95 -47.47)"/><path class="cls-4" d="M149.79,128.16v37.73A19.19,19.19,0,0,1,130.67,185h-20V127.75a19.21,19.21,0,0,0,35.28,7.52h0a18.73,18.73,0,0,0,2.68-7l1.2-.52C149.79,127.91,149.79,128,149.79,128.16Z" transform="translate(-30.95 -47.47)"/><path class="cls-5" d="M110.94,120.62c-.13.55-.23,1.11-.31,1.68-.08-.57-.18-1.13-.31-1.68l.31,0Z" transform="translate(-30.95 -47.47)"/><path class="cls-5" d="M110.73,123.13h-.1v-.84c0,.22.06.44.09.66C110.72,123,110.72,123.07,110.73,123.13Z" transform="translate(-30.95 -47.47)"/><path class="cls-5" d="M137.35,121.37a2.79,2.79,0,0,1-1.61,2.53h0a2.59,2.59,0,0,1-.59.2,4.65,4.65,0,0,1,.09.94,5.62,5.62,0,1,1-5.62-5.61,5.54,5.54,0,0,1,2.46.57,2.8,2.8,0,0,1,2.46-1.45A2.81,2.81,0,0,1,137.35,121.37Z" transform="translate(-30.95 -47.47)"/><path class="cls-5" d="M149.79,125.82v2.34c0-.13,0-.25,0-.38l-1.2.52a18.92,18.92,0,0,0,.28-3.28,18.17,18.17,0,0,0-.38-3.77,0,0,0,0,0,0,0c0-.1-.08-.2-.13-.3l.06,0a18.74,18.74,0,0,0-1.37-4,19.11,19.11,0,0,0-3.78-5.4,19.13,19.13,0,0,1,5.78,9.08s0,0,0,.05A18.64,18.64,0,0,1,149.79,125.82Z" transform="translate(-30.95 -47.47)"/><path class="cls-6" d="M110.73,123.13h-.1v-.84c0,.22.06.44.09.66C110.72,123,110.72,123.07,110.73,123.13Z" transform="translate(-30.95 -47.47)"/><path class="cls-6" d="M137.35,121.37a2.79,2.79,0,0,1-1.61,2.53h0a2.59,2.59,0,0,1-.59.2,4.65,4.65,0,0,1,.09.94,5.62,5.62,0,1,1-5.62-5.61,5.54,5.54,0,0,1,2.46.57,2.8,2.8,0,0,1,2.46-1.45A2.81,2.81,0,0,1,137.35,121.37Z" transform="translate(-30.95 -47.47)"/><polygon class="cls-6" points="97.22 58.98 97.32 59.21 97 59.21 97.22 58.98"/><path class="cls-6" d="M148.48,121.23c0-.1-.08-.2-.13-.3l.06,0A1.74,1.74,0,0,1,148.48,121.23Z" transform="translate(-30.95 -47.47)"/><path class="cls-6" d="M110.73,123.13h-.1v-.84c0,.22.06.44.09.66C110.72,123,110.72,123.07,110.73,123.13Z" transform="translate(-30.95 -47.47)"/><path class="cls-7" d="M135.24,125a5.62,5.62,0,1,1-5.62-5.61,5.62,5.62,0,0,1,5.53,4.67A4.65,4.65,0,0,1,135.24,125Z" transform="translate(-30.95 -47.47)"/><circle class="cls-8" cx="98.67" cy="77.57" r="4.87"/><path class="cls-6" d="M137.35,121.37a2.79,2.79,0,0,1-1.61,2.53h0a3,3,0,0,1-1.2.27h-.14a2.8,2.8,0,0,1-2.67-2.8,2.68,2.68,0,0,1,.09-.67,2.57,2.57,0,0,1,.27-.7,2.8,2.8,0,0,1,2.46-1.45A2.81,2.81,0,0,1,137.35,121.37Z" transform="translate(-30.95 -47.47)"/><polyline class="cls-9" points="79.68 74.83 79.68 75.47 79.68 75.66"/><polyline class="cls-9" points="79.68 74.83 79.68 75.47 79.68 75.66"/><path class="cls-2" d="M97.19,124.16a4.7,4.7,0,0,1,.08.88,5.62,5.62,0,1,1-2.9-4.91,2.8,2.8,0,1,1,2.82,4Z" transform="translate(-30.95 -47.47)"/><path class="cls-2" d="M78,111.46a19.22,19.22,0,0,0-4.81,8.1c-.13.43-.24.87-.34,1.31a19.14,19.14,0,0,0-.41,2.85c0,.43,0,.86,0,1.3a18.92,18.92,0,0,0,.28,3.28l-1.11-.48q-.09.94-.09,1.9v18.45l-5.4-2.34A5.16,5.16,0,0,1,63.33,143h0a5.17,5.17,0,0,1,0-4l2.84-6.55,1.41-3.25,1.13-2.59,2.42,1.06.31.13v-2c0-.23,0-.45,0-.68a4.26,4.26,0,0,1,0-.45,0,0,0,0,1,0,0q0-.45.07-.89a.1.1,0,0,1,0,0c0-.1,0-.2,0-.3s.05-.43.09-.64,0-.22.05-.33a.23.23,0,0,1,0-.07c0-.27.1-.52.16-.78l0-.18c.07-.3.15-.59.23-.89A19.13,19.13,0,0,1,78,111.46Z" transform="translate(-30.95 -47.47)"/><polygon class="cls-2" points="62.36 59.21 62.04 59.21 62.13 58.98 62.36 59.21"/><path class="cls-2" d="M110.63,122.3v.84h-.05s0-.09,0-.14v0C110.56,122.75,110.6,122.52,110.63,122.3Z" transform="translate(-30.95 -47.47)"/><path class="cls-10" d="M174.83,116.92l-20.12,8.73-2.18.95-1.91.83-.83.36v-2a18.64,18.64,0,0,0-.73-5.22s0,0,0-.05a19.13,19.13,0,0,0-5.78-9.08l0,0a19.16,19.16,0,0,0-13.59-5.63l-.85,0a8.24,8.24,0,0,0-.88.06,19.11,19.11,0,0,0-17,14.72l-.31,0V49.88a6.8,6.8,0,0,1,4.27,2l24.44,24.44L140,76l4.06,4.06.25.27a3.26,3.26,0,0,1,.38.57h0a3.58,3.58,0,0,1,.32,2.22.22.22,0,0,1,0,.07c0,.09,0,.18-.05.27a1.77,1.77,0,0,1-.09.34,2.74,2.74,0,0,1-.1.34c0,.11-.07.22-.11.33a10,10,0,0,1-.87,1.7l-.21.34c-.22.33-.45.66-.7,1l-.22.29,16.08-17.9a5.16,5.16,0,0,1,2.47,2.58l16.32,37.61A5.22,5.22,0,0,1,174.83,116.92Z" transform="translate(-30.95 -47.47)"/><path class="cls-2" d="M110.63,49.88V120.6l-.31,0a19.11,19.11,0,0,0-17-14.72,8.24,8.24,0,0,0-.88-.06l-.85,0A19.16,19.16,0,0,0,78,111.44l0,0a19.13,19.13,0,0,0-5.78,9.08c-.09.3-.16.59-.23.89l0,.18c-.05.26-.11.52-.16.78a.23.23,0,0,0,0,.07c0,.11,0,.22-.05.33s-.06.43-.09.64,0,.2,0,.3a.1.1,0,0,0,0,0q0,.45-.07.89a0,0,0,0,0,0,0,4.26,4.26,0,0,0,0,.45c0,.23,0,.45,0,.68v2l-.31-.13-2.42-1.06-2.18-.95-20.12-8.73a5.22,5.22,0,0,1-2.7-6.85L60,72.46A5.2,5.2,0,0,1,63,69.67L77.79,86.55c-.09-.16-.2-.32-.3-.48l-.3-.52a4,4,0,0,1-.21-.41l-.09-.2,0-.1-.12-.28,0-.08a.13.13,0,0,1,0-.07.81.81,0,0,1,0-.13l0,0a1.18,1.18,0,0,1-.07-.22l0,0,0-.09v0a4,4,0,0,1-.12-.44.1.1,0,0,1,0,0A4.1,4.1,0,0,1,76.3,83a3.66,3.66,0,0,1,0-.5,3.33,3.33,0,0,1,1-2.43l4-4,.18.08.42.18,24.44-24.44A6.8,6.8,0,0,1,110.63,49.88Z" transform="translate(-30.95 -47.47)"/><path class="cls-2" d="M78,111.46a19.22,19.22,0,0,0-4.81,8.1c-.13.43-.24.87-.34,1.31a19.14,19.14,0,0,0-.41,2.85c0,.43,0,.86,0,1.3a18.92,18.92,0,0,0,.28,3.28l-1.11-.48-.09,0v-2c0-.23,0-.45,0-.68a4.26,4.26,0,0,1,0-.45,0,0,0,0,1,0,0q0-.45.07-.89a.1.1,0,0,1,0,0c0-.1,0-.2,0-.3s.05-.43.09-.64,0-.22.05-.33a.23.23,0,0,1,0-.07c0-.27.1-.52.16-.78l0-.18c.07-.3.15-.59.23-.89A19.13,19.13,0,0,1,78,111.46Z" transform="translate(-30.95 -47.47)"/><path class="cls-3" d="M72.39,125a18.92,18.92,0,0,0,.28,3.28l-1.11-.48q-.09.94-.09,1.9v9.74l-.34,0c-1.83,0-3.43-1.81-4.33-4.5v0a14.84,14.84,0,0,1-.59-2.53A17.63,17.63,0,0,1,66,129.9c0-.48,0-1,.05-1.41a15.68,15.68,0,0,1,.48-2.84l2.18.95,2.42,1.06.31.13v-2c0-.23,0-.45,0-.68a4.26,4.26,0,0,1,0-.45,0,0,0,0,1,0,0q0-.45.07-.89a.1.1,0,0,1,0,0c0-.1,0-.2,0-.3s.05-.43.09-.64,0-.22.05-.33a.23.23,0,0,1,0-.07c0-.27.1-.52.16-.78l0-.18c.07-.3.15-.59.23-.89a3.26,3.26,0,0,1,.44.22l.19.12a19.14,19.14,0,0,0-.41,2.85C72.4,124.16,72.39,124.59,72.39,125Z" transform="translate(-30.95 -47.47)"/><path class="cls-5" d="M110.63,127.75V185h-20a19.19,19.19,0,0,1-19.12-19.13V129.72q0-1,.09-1.9l1.11.48a18.73,18.73,0,0,0,2.68,7h0a19.21,19.21,0,0,0,35.28-7.52Z" transform="translate(-30.95 -47.47)"/><path class="cls-5" d="M97.19,124.16a4.7,4.7,0,0,1,.08.88,5.62,5.62,0,1,1-2.9-4.91,2.8,2.8,0,1,1,2.82,4Z" transform="translate(-30.95 -47.47)"/><path class="cls-5" d="M78,111.46a19.22,19.22,0,0,0-4.81,8.1c-.13.43-.24.87-.34,1.31a19.14,19.14,0,0,0-.41,2.85c0,.43,0,.86,0,1.3a18.92,18.92,0,0,0,.28,3.28l-1.11-.48q-.09.94-.09,1.9v-3.91c0-.23,0-.45,0-.68a4.26,4.26,0,0,1,0-.45,0,0,0,0,1,0,0q0-.45.07-.89a.1.1,0,0,1,0,0c0-.1,0-.2,0-.3s.05-.43.09-.64,0-.22.05-.33a.23.23,0,0,1,0-.07c0-.27.1-.52.16-.78l0-.18c.07-.3.15-.59.23-.89A19.13,19.13,0,0,1,78,111.46Z" transform="translate(-30.95 -47.47)"/><path class="cls-5" d="M110.63,122.3v.84h-.05s0-.09,0-.14v0C110.56,122.75,110.6,122.52,110.63,122.3Z" transform="translate(-30.95 -47.47)"/><path class="cls-6" d="M148.48,121.26a0,0,0,0,0,0,0c0-.1-.08-.2-.13-.3l.06,0a18.74,18.74,0,0,0-1.37-4,19.11,19.11,0,0,0-3.78-5.4l0,0a19.16,19.16,0,0,0-13.59-5.63l-.85,0a8.24,8.24,0,0,0-.88.06,19.11,19.11,0,0,0-17,14.72c-.13.55-.23,1.11-.31,1.68,0,.22.06.44.09.66,0,.05,0,.12,0,.17h-.16s0-.09,0-.14v0c0-.23.05-.45.09-.67-.08-.57-.18-1.13-.31-1.68a19.11,19.11,0,0,0-17-14.72,8.24,8.24,0,0,0-.88-.06l-.85,0A19.16,19.16,0,0,0,78,111.44l0,0a19.22,19.22,0,0,0-4.81,8.1c-.13.43-.24.87-.34,1.31a19.14,19.14,0,0,0-.41,2.85c0,.43,0,.86,0,1.3a18.92,18.92,0,0,0,.28,3.28,18.73,18.73,0,0,0,2.68,7h0a19.21,19.21,0,0,0,35.28-7.52,19.21,19.21,0,0,0,35.28,7.52h0a18.73,18.73,0,0,0,2.68-7,18.92,18.92,0,0,0,.28-3.28A18.17,18.17,0,0,0,148.48,121.26Zm-55.4-14.8.23.23H93Zm4.1,17.7a4.7,4.7,0,0,1,.08.88,5.62,5.62,0,1,1-2.9-4.91,2.8,2.8,0,1,1,2.82,4Zm31-17.7.09.23h-.32Zm7.57,17.44h0a2.59,2.59,0,0,1-.59.2,4.65,4.65,0,0,1,.09.94,5.62,5.62,0,1,1-5.62-5.61,5.54,5.54,0,0,1,2.46.57,2.8,2.8,0,0,1,2.46-1.45,2.81,2.81,0,0,1,1.2,5.35Z" transform="translate(-30.95 -47.47)"/><path class="cls-6" d="M97.19,124.16a4.7,4.7,0,0,1,.08.88,5.62,5.62,0,1,1-2.9-4.91,2.8,2.8,0,1,1,2.82,4Z" transform="translate(-30.95 -47.47)"/><polygon class="cls-6" points="62.36 59.21 62.04 59.21 62.13 58.98 62.36 59.21"/><path class="cls-6" d="M110.63,122.3v.84h-.05s0-.09,0-.14v0C110.56,122.75,110.6,122.52,110.63,122.3Z" transform="translate(-30.95 -47.47)"/><path class="cls-6" d="M110.63,122.3v.84h-.05s0-.09,0-.14v0C110.56,122.75,110.6,122.52,110.63,122.3Z" transform="translate(-30.95 -47.47)"/><path class="cls-7" d="M97.26,125a5.7,5.7,0,1,1-.08-.88A4.7,4.7,0,0,1,97.26,125Z" transform="translate(-30.95 -47.47)"/><circle class="cls-8" cx="60.69" cy="77.57" r="4.94"/><path class="cls-6" d="M99.69,121.37a2.8,2.8,0,0,1-2.5,2.79l-.3,0a2.14,2.14,0,0,1-.39,0,2.81,2.81,0,0,1-2.41-2.77,2.85,2.85,0,0,1,.06-.58,2.61,2.61,0,0,1,.23-.66,2.8,2.8,0,0,1,5.32,1.23Z" transform="translate(-30.95 -47.47)"/><polyline class="cls-9" points="79.68 75.66 79.68 75.47 79.68 74.83"/><polyline class="cls-9" points="79.68 75.66 79.68 75.47 79.68 74.83"/><path class="cls-3" d="M106.67,179.25s10.45-3.64,11.82-1Z" transform="translate(-30.95 -47.47)"/><path class="cls-1" d="M81.31,76c2.14-2.61,4.37-5.12,6.6-7.64s4.51-5,6.81-7.43,4.63-4.87,6.94-7.3l3.53-3.59a8.32,8.32,0,0,1,5.36-2.59h.24a8.35,8.35,0,0,1,5.35,2.58l3.52,3.59c2.31,2.43,4.66,4.82,6.94,7.29s4.56,4.93,6.81,7.42,4.46,5,6.59,7.63c-2.61-2.14-5.12-4.37-7.63-6.59s-5-4.51-7.42-6.81-4.86-4.62-7.29-6.94l-3.59-3.52a5.37,5.37,0,0,0-3.52-1.66h.24a5.36,5.36,0,0,0-3.52,1.67l-3.59,3.53c-2.43,2.32-4.83,4.67-7.3,6.94S91.45,67.17,89,69.42,83.92,73.89,81.31,76Z" transform="translate(-30.95 -47.47)"/><line class="cls-9" x1="50.68" y1="43.46" x2="46.86" y2="39.1"/><path class="cls-10" d="M77.81,86.58,63,69.67a5.21,5.21,0,0,1,3.91.09L81.31,76l-4,4C75.52,81.82,76.3,84.32,77.81,86.58Z" transform="translate(-30.95 -47.47)"/><path class="cls-2" d="M142.65,87.8c2-2.53,3.5-5.67,1.42-7.74L140,76l.18-.08,14.18-6.16a5.18,5.18,0,0,1,4.38.13Z" transform="translate(-30.95 -47.47)"/><path class="cls-1" d="M80.4,89.7a14.7,14.7,0,0,1-4.32-5.78A5,5,0,0,1,75.82,82a3.78,3.78,0,0,1,.7-1.92c.44-.58.82-.93,1.23-1.4L79,77.36q4.87-5.24,9.8-10.42c3.27-3.47,6.62-6.86,9.93-10.29l5-5.09L105,50.29a10.21,10.21,0,0,1,1.54-1.36,8.35,8.35,0,0,1,4.05-1.45h.24a8.32,8.32,0,0,1,4.05,1.45,10.21,10.21,0,0,1,1.54,1.36l1.26,1.27,5,5.09c3.31,3.43,6.66,6.82,9.93,10.29s6.55,6.93,9.79,10.42l1.21,1.32c.41.47.79.81,1.23,1.4a3.78,3.78,0,0,1,.71,1.92,4.94,4.94,0,0,1-.27,1.93,14.69,14.69,0,0,1-4.32,5.77,21.42,21.42,0,0,0,2.14-2.84,10.34,10.34,0,0,0,1.41-3.15,3.26,3.26,0,0,0-.56-2.95c-.3-.35-.83-.78-1.25-1.18l-1.32-1.21q-5.24-4.86-10.42-9.79c-3.47-3.27-6.86-6.62-10.29-9.93l-5.09-5-1.27-1.26a7.27,7.27,0,0,0-1.14-1,5.39,5.39,0,0,0-2.61-.9h.24a5.37,5.37,0,0,0-2.61.9,7.27,7.27,0,0,0-1.14,1l-1.27,1.26-5.09,5C97.26,62,93.86,65.31,90.4,68.58S83.47,75.13,80,78.38l-1.32,1.21c-.41.39-.94.83-1.25,1.18a3.26,3.26,0,0,0-.56,3,10.35,10.35,0,0,0,1.41,3.15A21.42,21.42,0,0,0,80.4,89.7Z" transform="translate(-30.95 -47.47)"/><path class="cls-11" d="M122.87,163.68a3.35,3.35,0,0,1-.92,3,8.17,8.17,0,0,1-2.53,1.83,14.72,14.72,0,0,1-2.79,1,27.48,27.48,0,0,1-2.83.5c-.95.07-1.89.13-2.82.12a25.12,25.12,0,0,1-2.8-.21,22.85,22.85,0,0,1-2.76-.52c-.46-.14-.91-.25-1.36-.41l-.67-.25-.33-.15-.17-.07-.08,0,0,0h0c.09,0,0-.36,0-.2a.1.1,0,0,1,0,.2c0,.16-.07-.22,0-.2h.34l.34,0,.68,0,1.36,0q1.36,0,2.72,0c1.81,0,3.63-.12,5.43-.33a25.09,25.09,0,0,0,5.31-1,8.48,8.48,0,0,0,2.4-1.18,3.19,3.19,0,0,0,1.36-2.17.1.1,0,0,1,.19,0Z" transform="translate(-30.95 -47.47)"/><path class="cls-11" d="M155.71,227v46.6H66.07V227a22.74,22.74,0,0,1,20.6-22.57h0c.37,0,.75-.06,1.12-.08l.93,0H133a3.25,3.25,0,0,1,.44,0h0a3.23,3.23,0,0,1,.44,0h0A22.73,22.73,0,0,1,155.71,227Z" transform="translate(-30.95 -47.47)"/><path class="cls-12" d="M133.61,197.14c0,4.17,3.29,7.58-2.74,7.58H89.09c-6,0-2.74-3.41-2.74-7.58v-4.2c0-4.17-3.29-7.58,2.74-7.58h41.78c6,0,2.74,3.41,2.74,7.58Z" transform="translate(-30.95 -47.47)"/><path class="cls-13" d="M135.44,196.82c0,4.17,3.29,7.58-2.74,7.58H90.92c-6,0-2.74-3.41-2.74-7.58v-4.2c0-4.17-3.29-7.58,2.74-7.58H132.7c6,0,2.74,3.41,2.74,7.58Z" transform="translate(-30.95 -47.47)"/><path class="cls-12" d="M126.32,192.6l9.12-.18-.2.2a11.78,11.78,0,0,1,.28-2.57c.17-.83.41-1.66.5-2.46a2,2,0,0,0-.11-1.08,1.19,1.19,0,0,0-.79-.58,7.27,7.27,0,0,0-2.4-.1h0c-7,.11-13.93.09-20.89.13s-13.93,0-20.89,0h0a7.18,7.18,0,0,0-2.36.12,1.1,1.1,0,0,0-.72.53,1.93,1.93,0,0,0-.1,1c.09.78.33,1.61.5,2.45a12,12,0,0,1,.3,2.59v0h0l-.74,6.8-.25-.27,12.6.19-12.6.3h-.27l0-.28.57-6.82v0a11.36,11.36,0,0,0-.34-2.43c-.19-.81-.44-1.61-.58-2.51a2.68,2.68,0,0,1,.14-1.47,1.89,1.89,0,0,1,1.21-1,7.88,7.88,0,0,1,2.68-.17h0c7,0,13.93-.09,20.89,0s13.93,0,20.89.13h0a7.81,7.81,0,0,1,2.64.19,1.8,1.8,0,0,1,1.14.93,2.58,2.58,0,0,1,.13,1.41c-.13.88-.39,1.68-.58,2.5a11.61,11.61,0,0,0-.37,2.46v.21h-.2Z" transform="translate(-30.95 -47.47)"/><polygon class="cls-8" points="107.45 226.12 108.45 175 109.45 226.12 107.45 226.12"/><polygon class="cls-8" points="49.49 226.12 50.49 175 51.49 226.12 49.49 226.12"/><path class="cls-6" d="M125.44,239.41,113,273l-.22.59H97.82c-.26-.19-.5-.39-.74-.59a22,22,0,0,1,1.36-34.59l.27-.2a22.17,22.17,0,0,1,5-2.63l.91-.31a22.11,22.11,0,0,1,6.64-1A21.86,21.86,0,0,1,125.44,239.41Z" transform="translate(-30.95 -47.47)"/><path class="cls-6" d="M130,244.7,119.49,273l-.22.59H116l.22-.59,11.61-31.25A20.17,20.17,0,0,1,130,244.7Z" transform="translate(-30.95 -47.47)"/><path class="cls-6" d="M133.28,256.24A21.92,21.92,0,0,1,125.51,273l-.72.59h-2.26l.22-.59,9.11-24.54A21.84,21.84,0,0,1,133.28,256.24Z" transform="translate(-30.95 -47.47)"/><path class="cls-12" d="M104.49,238.27c-2.42,3-17.76-4.2-17.76-4.2l0-29.65H102S105.54,237,104.49,238.27Z" transform="translate(-30.95 -47.47)"/><path class="cls-13" d="M103.61,238c-.42,3.4-16.14-4.46-16.14-4.46L87.81,204l13.31,1.21S104.51,230.8,103.61,238Z" transform="translate(-30.95 -47.47)"/><path class="cls-3" d="M80.7,273a3.56,3.56,0,0,1-.28.59,4.42,4.42,0,0,1-2.66,2.28,4.47,4.47,0,0,1-3.5-.52,7.09,7.09,0,0,1-2-1.76,6.47,6.47,0,0,1-.44-.59,10,10,0,0,1-1.34-2.87c-1.17-4,.23-7.93,3.11-8.77l.31-.08.23,0h0c2.73-.38,5.67,2.11,6.76,5.87A9,9,0,0,1,80.7,273Z" transform="translate(-30.95 -47.47)"/><path class="cls-3" d="M74.26,262.51v21.3a5.48,5.48,0,0,1-5.46,5.46H66.94a5.37,5.37,0,0,1-2.86-.82,5.07,5.07,0,0,1-1.15-1,5.39,5.39,0,0,1-1.45-3.68v-21.3A5.26,5.26,0,0,1,62,260.2a3.06,3.06,0,0,1,.29-.53,5.39,5.39,0,0,1,3.77-2.53,4.2,4.2,0,0,1,.87-.08H68.8a5.47,5.47,0,0,1,5.3,4.18h0A5.32,5.32,0,0,1,74.26,262.51Z" transform="translate(-30.95 -47.47)"/><path class="cls-3" d="M64.08,263.68v25.79a5.46,5.46,0,0,1-5.45,5.45H56.76a5.36,5.36,0,0,1-2.88-.83l-.12-.08a5.44,5.44,0,0,1-2.45-4.54V263.68a5.25,5.25,0,0,1,.52-2.31,3.92,3.92,0,0,1,.29-.53,5.44,5.44,0,0,1,4.64-2.61h1.87a5.37,5.37,0,0,1,3.67,1.44,3.11,3.11,0,0,1,.32.31A5.38,5.38,0,0,1,64.08,263.68Z" transform="translate(-30.95 -47.47)"/><path class="cls-3" d="M53.91,264.85v27.91a5.16,5.16,0,0,1-.15,1.25,3.64,3.64,0,0,1-.2.64,5.45,5.45,0,0,1-5.11,3.57H46.59a5.48,5.48,0,0,1-5.46-5.46V264.85a5.38,5.38,0,0,1,.28-1.71,3.46,3.46,0,0,1,.25-.6,5.46,5.46,0,0,1,4.93-3.14h1.86a5.36,5.36,0,0,1,3.67,1.44,2.33,2.33,0,0,1,.32.31A5.35,5.35,0,0,1,53.91,264.85Z" transform="translate(-30.95 -47.47)"/><path class="cls-3" d="M43.73,266.8v17.8a5.44,5.44,0,0,1-2.6,4.64,5.36,5.36,0,0,1-2.85.82H36.41A5.48,5.48,0,0,1,31,284.6V266.8a5.47,5.47,0,0,1,5.46-5.45h1.87a5.35,5.35,0,0,1,3.38,1.19,1.68,1.68,0,0,1,.29.25A5.41,5.41,0,0,1,43.73,266.8Z" transform="translate(-30.95 -47.47)"/><path class="cls-4" d="M74.26,263.29v21.3A5.48,5.48,0,0,1,68.8,290H66.94a5.37,5.37,0,0,1-2.86-.82,5.06,5.06,0,0,1-1.15-1,5.39,5.39,0,0,1-1.45-3.68v-21.3a5.32,5.32,0,0,1,.82-2.84,2.79,2.79,0,0,1,.32-.47,5.39,5.39,0,0,1,3.45-2.06,4.21,4.21,0,0,1,.87-.08H68.8a5.47,5.47,0,0,1,5.07,3.44A5.37,5.37,0,0,1,74.26,263.29Z" transform="translate(-30.95 -47.47)"/><path class="cls-4" d="M64.08,264.46v25.79a5.46,5.46,0,0,1-5.45,5.45H56.76a5.34,5.34,0,0,1-3-.91l-.2-.14a5.43,5.43,0,0,1-2.25-4.4V264.46a5.32,5.32,0,0,1,.81-2.84,3.55,3.55,0,0,1,.32-.47A5.42,5.42,0,0,1,56.76,259h1.87A5.35,5.35,0,0,1,62,260.2a1.67,1.67,0,0,1,.29.25A5.41,5.41,0,0,1,64.08,264.46Z" transform="translate(-30.95 -47.47)"/><path class="cls-4" d="M53.91,265.63v27.91a5.06,5.06,0,0,1,0,.55,4.27,4.27,0,0,1-.12.7A5.48,5.48,0,0,1,48.45,299H46.59a5.48,5.48,0,0,1-5.46-5.46V265.63a5.25,5.25,0,0,1,.52-2.31,3.12,3.12,0,0,1,.3-.53,5.44,5.44,0,0,1,4.64-2.61h1.86a5.37,5.37,0,0,1,3.38,1.19,1.67,1.67,0,0,1,.29.25A5.36,5.36,0,0,1,53.91,265.63Z" transform="translate(-30.95 -47.47)"/><path class="cls-4" d="M43.73,267.59v17.79a5.44,5.44,0,0,1-2.6,4.64,5.36,5.36,0,0,1-2.85.82H36.41A5.48,5.48,0,0,1,31,285.38V267.59a5.48,5.48,0,0,1,5.46-5.46h1.87a5.29,5.29,0,0,1,3.13,1,1.08,1.08,0,0,1,.24.18A5.4,5.4,0,0,1,43.73,267.59Z" transform="translate(-30.95 -47.47)"/><path class="cls-3" d="M41.82,265.36c.21,3.87.22,7.73.25,11.6s0,7.73-.25,11.6c-.21-3.87-.22-7.73-.25-11.6S41.62,269.23,41.82,265.36Z" transform="translate(-30.95 -47.47)"/><path class="cls-3" d="M52.77,265.36q.14,3.32.19,6.63l.06,6.63L53,285.25q-.05,3.32-.19,6.63-.14-3.32-.19-6.63l-.06-6.63.06-6.63Q52.63,268.68,52.77,265.36Z" transform="translate(-30.95 -47.47)"/><path class="cls-3" d="M62.93,262.59q.14,3.32.19,6.63l.06,6.63-.06,6.63q-.05,3.32-.19,6.63-.14-3.32-.19-6.63l-.06-6.63.06-6.63Q62.79,265.9,62.93,262.59Z" transform="translate(-30.95 -47.47)"/><path class="cls-3" d="M149.25,270.13a10,10,0,0,1-1.34,2.87c-.14.21-.29.4-.44.59a7.25,7.25,0,0,1-2,1.76,4.25,4.25,0,0,1-6.17-1.76A6.36,6.36,0,0,1,139,273a9,9,0,0,1-.17-5.89,10.3,10.3,0,0,1,.58-1.53c1.35-2.88,3.85-4.66,6.19-4.34h0l.23,0,.31.08C149,262.2,150.41,266.12,149.25,270.13Z" transform="translate(-30.95 -47.47)"/><path class="cls-3" d="M158.21,262.51v21.3a5.34,5.34,0,0,1-1.45,3.68,4.82,4.82,0,0,1-1.15,1,5.36,5.36,0,0,1-2.85.82h-1.87a5.47,5.47,0,0,1-5.45-5.46v-21.3a5.32,5.32,0,0,1,.15-1.27h0a5.45,5.45,0,0,1,5.29-4.18h1.87a5.33,5.33,0,0,1,3,.88,5.27,5.27,0,0,1,1.69,1.73,3.91,3.91,0,0,1,.29.53A5.25,5.25,0,0,1,158.21,262.51Z" transform="translate(-30.95 -47.47)"/><path class="cls-3" d="M168.39,263.68v25.79a5.46,5.46,0,0,1-2.45,4.54l-.12.08a5.39,5.39,0,0,1-2.89.83h-1.86a5.47,5.47,0,0,1-5.46-5.45V263.68a5.07,5.07,0,0,1,.1-1,5.31,5.31,0,0,1,1.37-2.67,2.32,2.32,0,0,1,.32-.31,5.36,5.36,0,0,1,3.67-1.44h1.86a5.44,5.44,0,0,1,4.64,2.61,2.51,2.51,0,0,1,.29.53A5.13,5.13,0,0,1,168.39,263.68Z" transform="translate(-30.95 -47.47)"/><path class="cls-3" d="M178.57,264.85v27.91a5.48,5.48,0,0,1-5.46,5.46h-1.87a5.44,5.44,0,0,1-5.1-3.57,3.64,3.64,0,0,1-.2-.64,5.16,5.16,0,0,1-.15-1.25V264.85a5.38,5.38,0,0,1,1.46-3.7,3.11,3.11,0,0,1,.32-.31,5.37,5.37,0,0,1,3.67-1.44h1.87a5.46,5.46,0,0,1,4.93,3.13,3.13,3.13,0,0,1,.24.6A5.18,5.18,0,0,1,178.57,264.85Z" transform="translate(-30.95 -47.47)"/><path class="cls-3" d="M188.74,266.8v17.8a5.47,5.47,0,0,1-5.46,5.46h-1.86a5.36,5.36,0,0,1-2.85-.82A5.45,5.45,0,0,1,176,284.6V266.8a5.4,5.4,0,0,1,1.79-4,3.49,3.49,0,0,1,.29-.25,5.44,5.44,0,0,1,3.38-1.18h1.86A5.46,5.46,0,0,1,188.74,266.8Z" transform="translate(-30.95 -47.47)"/><path class="cls-4" d="M158.21,263.29v21.3a5.34,5.34,0,0,1-1.45,3.68,4.82,4.82,0,0,1-1.15,1,5.36,5.36,0,0,1-2.85.82h-1.87a5.47,5.47,0,0,1-5.45-5.46v-21.3a5.37,5.37,0,0,1,.39-2,5.46,5.46,0,0,1,5.06-3.44h1.87a5.5,5.5,0,0,1,4.32,2.14,3.55,3.55,0,0,1,.32.47A5.32,5.32,0,0,1,158.21,263.29Z" transform="translate(-30.95 -47.47)"/><path class="cls-4" d="M168.39,264.46v25.79a5.45,5.45,0,0,1-2.25,4.4l-.2.14a5.37,5.37,0,0,1-3,.91h-1.86a5.47,5.47,0,0,1-5.46-5.45V264.46a5.07,5.07,0,0,1,.1-1,5.3,5.3,0,0,1,1.69-3,1.67,1.67,0,0,1,.29-.25,5.37,5.37,0,0,1,3.38-1.19h1.86a5.42,5.42,0,0,1,4.32,2.14,2.79,2.79,0,0,1,.32.47A5.24,5.24,0,0,1,168.39,264.46Z" transform="translate(-30.95 -47.47)"/><path class="cls-4" d="M178.57,265.63v27.91a5.48,5.48,0,0,1-5.46,5.46h-1.87a5.47,5.47,0,0,1-5.3-4.21,4.27,4.27,0,0,1-.12-.7,5.06,5.06,0,0,1,0-.55V265.63a5.41,5.41,0,0,1,1.78-4,1.67,1.67,0,0,1,.29-.25,5.35,5.35,0,0,1,3.38-1.19h1.87a5.44,5.44,0,0,1,4.64,2.6,3.92,3.92,0,0,1,.29.53A5.3,5.3,0,0,1,178.57,265.63Z" transform="translate(-30.95 -47.47)"/><path class="cls-4" d="M188.74,267.59v17.79a5.47,5.47,0,0,1-5.46,5.46h-1.86a5.36,5.36,0,0,1-2.85-.82,5.45,5.45,0,0,1-2.61-4.64V267.59a5.47,5.47,0,0,1,2.08-4.28l.24-.18a5.41,5.41,0,0,1,3.14-1h1.86A5.47,5.47,0,0,1,188.74,267.59Z" transform="translate(-30.95 -47.47)"/><path class="cls-3" d="M177.87,265.36c.21,3.87.22,7.73.25,11.6s0,7.73-.25,11.6c-.21-3.87-.22-7.73-.25-11.6S177.67,269.23,177.87,265.36Z" transform="translate(-30.95 -47.47)"/><path class="cls-3" d="M166.93,265.36q.14,3.32.19,6.63l.06,6.63-.06,6.63q-.05,3.32-.19,6.63-.14-3.32-.19-6.63l-.06-6.63.06-6.63Q166.79,268.68,166.93,265.36Z" transform="translate(-30.95 -47.47)"/><path class="cls-3" d="M156.76,262.59q.14,3.32.19,6.63l.06,6.63-.06,6.63q-.05,3.32-.19,6.63-.14-3.32-.19-6.63l-.06-6.63.06-6.63Q156.62,265.9,156.76,262.59Z" transform="translate(-30.95 -47.47)"/></svg>