<?xml version="1.0" encoding="utf-8"?>
<!-- Generator: Adobe Illustrator 21.0.0, SVG Export Plug-In . SVG Version: 6.00 Build 0)  -->
<svg version="1.1" id="Layer_1" xmlns="http://www.w3.org/2000/svg" xmlns:xlink="http://www.w3.org/1999/xlink" x="0px" y="0px"
	 viewBox="0 0 157.8 251.5" style="enable-background:new 0 0 157.8 251.5;" xml:space="preserve">
<style type="text/css">
	.st0{fill:#5F3817;}
	.st1{fill:#744C2C;}
	.st2{fill:#F6C6BA;}
	.st3{fill:#FAD2C5;}
	.st4{fill:#FAD1BF;}
	.st5{fill:#FFFFFF;}
	.st6{fill:#C2996F;}
	.st7{fill:#231F20;}
	.st8{fill:none;}
	.st9{fill:#895D3E;}
	.st10{fill:#404041;}
	.st11{fill:#1F80A2;}
	.st12{fill:#BC2132;}
	.st13{fill:#E44B4C;}
	.st14{opacity:0.4;fill:#231F20;}
</style>
<title>Nico1</title>
<path class="st0" d="M37.8,83l2.7,1.2v20.4l-5.4-2.3c-2.6-1.1-3.8-4.1-2.7-6.8c0,0,0-0.1,0-0.1l2.8-6.6l0.6-1.3L37.8,83z"/>
<path class="st0" d="M41.7,80.8l-1.1-0.5c0.1-1.1,0.3-2.3,0.7-3.4c0.1-0.2,0.1-0.5,0.2-0.7c0,0.4,0,0.9,0,1.3
	C41.5,78.7,41.5,79.8,41.7,80.8z"/>
<path class="st0" d="M66.2,76.7c0.1,0.3,0.1,0.6,0.1,0.9c0,3.1-2.5,5.6-5.6,5.6c-3.1,0-5.6-2.5-5.6-5.6c0-3.1,2.5-5.6,5.6-5.6
	c1,0,1.9,0.2,2.7,0.7c0.7-1.4,2.3-2,3.7-1.3s2,2.3,1.3,3.7C68,76,67.2,76.6,66.2,76.7L66.2,76.7z"/>
<path class="st0" d="M79.8,75.7L79.8,75.7l-0.1-0.2h0.1C79.8,75.5,79.8,75.6,79.8,75.7z"/>
<path class="st0" d="M106.4,73.9c0,1.1-0.6,2.1-1.6,2.5l0,0c-0.2,0.1-0.4,0.2-0.6,0.2c0.1,0.3,0.1,0.6,0.1,0.9
	c0,3.1-2.5,5.6-5.6,5.6c-3.1,0-5.6-2.5-5.6-5.6s2.5-5.6,5.6-5.6c0,0,0,0,0,0c0.9,0,1.7,0.2,2.5,0.6c0.5-0.9,1.4-1.5,2.5-1.4
	C105.1,71.1,106.4,72.3,106.4,73.9C106.4,73.9,106.4,73.9,106.4,73.9z"/>
<path class="st0" d="M117.6,80.8c0.2-1.1,0.3-2.2,0.3-3.3c0-1.3-0.1-2.5-0.4-3.8c0.2,0.5,0.4,1.1,0.6,1.6c0.5,1.6,0.7,3.2,0.7,4.9
	L117.6,80.8z"/>
<path class="st0" d="M124.2,100.7l-5.4,2.3V82.7l0.9-0.4l1.9-0.8l0.4,0.8l1.9,4.3l0,0l0.3,0.7l2.8,6.6c0.1,0.3,0.2,0.6,0.3,0.9
	C127.8,97.2,126.5,99.7,124.2,100.7z"/>
<path class="st0" d="M79.8,75.5c0-0.2-0.1-0.4-0.1-0.7c0,0.2-0.1,0.4-0.1,0.7l0,0c0,0,0,0.1,0,0.1h0.2
	C79.8,75.6,79.8,75.5,79.8,75.5z M118.1,73.1c-1-3.5-3-6.7-5.8-9.1c1.6,1.6,2.8,3.4,3.8,5.4C116.8,70.5,117.5,71.8,118.1,73.1
	L118.1,73.1C118.1,73.1,118.1,73.1,118.1,73.1z M97,59.2h0.3L97.2,59L97,59.2z M118.1,73.1c-1-3.5-3-6.7-5.8-9.1
	c1.6,1.6,2.8,3.4,3.8,5.4C116.8,70.5,117.5,71.8,118.1,73.1L118.1,73.1C118.1,73.1,118.1,73.1,118.1,73.1z M97,59.2h0.3L97.2,59
	L97,59.2z M62.1,59L62,59.2h0.3L62.1,59z M97.2,59L97,59.2h0.3L97.2,59z M147.9,64.4l-16.6-40.2c-0.5-1.2-1.4-2.2-2.6-2.8
	c-1.4-0.7-3-0.7-4.4-0.1l-15.3,7L84.3,2.2c-1.1-1.2-2.7-2-4.3-2.1h-0.3c-1.6,0.2-3,0.9-4.1,2.1l-22,23.1l-2.8,3h-0.1l-15.2-7
	c-1.3-0.6-2.9-0.6-4.2,0c-1.2,0.6-2.2,1.6-2.7,2.8L12,64.4c-1.2,2.8,0,6,2.7,7.3L35.1,81h0.1l1.5,0.7l0.7,0.3l2.8,1.3v-2.1
	c0-0.4,0-0.7,0-1c0-1,0.2-2,0.3-3l0,0c0.1-0.6,0.2-1.1,0.4-1.6c0.2-0.8,0.5-1.5,0.8-2.3c0.2-0.4,0.3-0.8,0.5-1.2
	c0.9-3.1,2.6-5.8,4.8-8.1l0,0c3.6-3.6,8.5-5.6,13.6-5.6h0.8c0.3,0,0.6,0,0.9,0.1c8.3,0.7,15.1,6.6,17,14.7h0.3V2.4
	c1.6,0.1,3.1,0.8,4.3,2l24.4,24.4l0.7-0.3l0.2-0.1l14.2-6.2c2.6-1.1,5.7,0.1,6.9,2.7l16.3,37.6c1.1,2.6-0.1,5.7-2.7,6.8l-20.1,8.7
	l-2.2,0.9l-1.9,0.8c0,0.4,0,0.8,0,1.3v2.1l2.2-1l0,0l0.6-0.2l0.3-0.1l1.5-0.7l0.4-0.2l20.4-9.3C147.8,70.4,149.1,67.2,147.9,64.4
	L147.9,64.4z M46.3,32.6c-0.7,0.6-1,1.5-1,2.4c0,0.2,0,0.3,0,0.5c0,0.1,0,0.3,0.1,0.4l0,0c0,0.1,0.1,0.3,0.1,0.4l0,0v0.1l0,0
	c0,0.1,0,0.1,0.1,0.2l0,0c0,0,0,0.1,0,0.1c0,0,0,0,0,0.1V37l0.1,0.3v0.1l0.1,0.2c0.1,0.1,0.1,0.3,0.2,0.4l0.3,0.5
	c0.1,0.2,0.2,0.3,0.3,0.5L32,22.2c1.3-0.5,2.7-0.4,3.9,0.1l14.4,6.2L46.3,32.6z M97,59.2h0.3L97.2,59L97,59.2z M97.2,59L97,59.2h0.3
	L97.2,59z M118.1,73.1c-1-3.5-3-6.7-5.8-9.1c1.6,1.6,2.8,3.4,3.8,5.4C116.8,70.5,117.5,71.8,118.1,73.1L118.1,73.1
	C118.1,73.1,118.1,73.1,118.1,73.1z M97,59.2h0.3L97.2,59L97,59.2z"/>
<path class="st1" d="M79.8,75.7L79.8,75.7l-0.1-0.8c0,0.2,0.1,0.4,0.1,0.7C79.8,75.5,79.8,75.6,79.8,75.7z"/>
<path class="st1" d="M106.4,73.9c0,1.1-0.6,2.1-1.6,2.5l0,0c-0.2,0.1-0.4,0.2-0.6,0.2c0.1,0.3,0.1,0.6,0.1,0.9
	c0,3.1-2.5,5.6-5.6,5.6c-3.1,0-5.6-2.5-5.6-5.6s2.5-5.6,5.6-5.6c0,0,0,0,0,0c0.9,0,1.7,0.2,2.5,0.6c0.5-0.9,1.4-1.5,2.5-1.4
	C105.1,71.1,106.4,72.3,106.4,73.9C106.4,73.9,106.4,73.9,106.4,73.9z"/>
<polygon class="st1" points="97.2,59 97.3,59.2 97,59.2 "/>
<path class="st1" d="M127.2,94.7L127.2,94.7L127.2,94.7c-0.4,1.6-1.5,2.9-3,3.6l-5.4,2.3l0,0v-20c0-0.1,0-0.2,0-0.4l-1.2,0.5
	c0.2-1.1,0.3-2.2,0.3-3.3c0-1.3-0.1-2.5-0.4-3.8l0,0c0-0.1-0.1-0.2-0.1-0.3h0.1c-0.3-1.4-0.8-2.7-1.4-4c-0.9-2-2.2-3.8-3.8-5.4
	c2.8,2.4,4.8,5.6,5.8,9.1c0,0,0,0,0,0.1c0.5,1.7,0.7,3.5,0.7,5.2v2l0.8-0.4l1.9-0.8l1.2,2.8l1.3,3l2.8,6.6
	C127.4,92.6,127.5,93.7,127.2,94.7z"/>
<path class="st1" d="M106.4,73.9c0,1.1-0.6,2.1-1.6,2.5l-2.2-5.2c0.3-0.1,0.7-0.2,1-0.2C105.1,71.1,106.4,72.3,106.4,73.9
	C106.4,73.9,106.4,73.9,106.4,73.9z"/>
<path class="st1" d="M118.8,78.3v2l0,0l-1.2,0.5c0.2-1.1,0.3-2.2,0.3-3.3c0-1.3-0.1-2.5-0.4-3.8l0,0c0-0.1-0.1-0.2-0.1-0.3h0.1
	c-0.3-1.4-0.8-2.7-1.4-4c-0.9-2-2.2-3.8-3.8-5.4c2.8,2.4,4.8,5.6,5.8,9.1c0,0,0,0,0,0.1C118.6,74.9,118.8,76.6,118.8,78.3z"/>
<path class="st2" d="M124.3,82.4c0,0.8-0.1,1.7-0.2,2.5c-0.1,0.5-0.2,1.1-0.3,1.6l0,0l0,0c-0.8,3.2-2.6,5.4-4.6,5.4h-0.3l0,0V80.7
	c0-0.1,0-0.2,0-0.4l-1.2,0.5c0.2-1.1,0.3-2.2,0.3-3.3c0-1.3-0.1-2.5-0.4-3.8l0,0c0-0.1-0.1-0.2-0.1-0.3h0.1c0.2-0.1,0.4-0.3,0.6-0.3
	l0,0c0,0,0,0,0,0.1c0.5,1.7,0.7,3.5,0.7,5.2v2l0.8-0.4l1.9-0.8l2.2-0.9c0.3,1,0.4,2,0.5,3.1C124.3,81.6,124.3,82,124.3,82.4z"/>
<path class="st3" d="M118.8,80.7v37.7c0,10.5-8.6,19.1-19.1,19.1h-20V80.3c1.5,10.5,11.2,17.8,21.7,16.3c5.6-0.8,10.5-4,13.6-8.8
	l0,0c1.4-2.1,2.3-4.5,2.7-7l1.2-0.5C118.8,80.4,118.8,80.5,118.8,80.7z"/>
<path class="st4" d="M80,73.2c-0.1,0.6-0.2,1.1-0.3,1.7c-0.1-0.6-0.2-1.1-0.3-1.7h0.3H80z"/>
<path class="st4" d="M79.8,75.7L79.8,75.7l-0.1-0.8c0,0.2,0.1,0.4,0.1,0.7C79.8,75.5,79.8,75.6,79.8,75.7z"/>
<path class="st4" d="M106.4,73.9c0,1.1-0.6,2.1-1.6,2.5l0,0c-0.2,0.1-0.4,0.2-0.6,0.2c0.1,0.3,0.1,0.6,0.1,0.9
	c0,3.1-2.5,5.6-5.6,5.6c-3.1,0-5.6-2.5-5.6-5.6s2.5-5.6,5.6-5.6c0,0,0,0,0,0c0.9,0,1.7,0.2,2.5,0.6c0.5-0.9,1.4-1.5,2.5-1.4
	C105.1,71.1,106.4,72.3,106.4,73.9C106.4,73.9,106.4,73.9,106.4,73.9z"/>
<path class="st4" d="M118.8,78.3v2.3c0-0.1,0-0.2,0-0.4l-1.2,0.5c0.2-1.1,0.3-2.2,0.3-3.3c0-1.3-0.1-2.5-0.4-3.8l0,0
	c0-0.1-0.1-0.2-0.1-0.3h0.1c-0.3-1.4-0.8-2.7-1.4-4c-0.9-2-2.2-3.8-3.8-5.4c2.8,2.4,4.8,5.6,5.8,9.1c0,0,0,0,0,0.1
	C118.6,74.9,118.8,76.6,118.8,78.3z"/>
<path class="st5" d="M79.8,75.7L79.8,75.7l-0.1-0.8c0,0.2,0.1,0.4,0.1,0.7C79.8,75.5,79.8,75.6,79.8,75.7z"/>
<path class="st5" d="M106.4,73.9c0,1.1-0.6,2.1-1.6,2.5l0,0c-0.2,0.1-0.4,0.2-0.6,0.2c0.1,0.3,0.1,0.6,0.1,0.9
	c0,3.1-2.5,5.6-5.6,5.6c-3.1,0-5.6-2.5-5.6-5.6s2.5-5.6,5.6-5.6c0,0,0,0,0,0c0.9,0,1.7,0.2,2.5,0.6c0.5-0.9,1.4-1.5,2.5-1.4
	C105.1,71.1,106.4,72.3,106.4,73.9C106.4,73.9,106.4,73.9,106.4,73.9z"/>
<polygon class="st5" points="97.2,59 97.3,59.2 97,59.2 "/>
<path class="st5" d="M117.5,73.8c0-0.1-0.1-0.2-0.1-0.3h0.1C117.5,73.6,117.5,73.7,117.5,73.8z"/>
<path class="st5" d="M79.8,75.7L79.8,75.7l-0.1-0.8c0,0.2,0.1,0.4,0.1,0.7C79.8,75.5,79.8,75.6,79.8,75.7z"/>
<path class="st6" d="M104.3,77.5c0,3.1-2.5,5.6-5.6,5.6c-3.1,0-5.6-2.5-5.6-5.6c0-3.1,2.5-5.6,5.6-5.6c0,0,0,0,0,0
	c2.7,0,5.1,2,5.5,4.7C104.3,76.9,104.3,77.2,104.3,77.5z"/>
<circle class="st7" cx="98.7" cy="77.6" r="4.9"/>
<path class="st5" d="M106.4,73.9c0,1.1-0.6,2.1-1.6,2.5l0,0c-0.4,0.2-0.8,0.3-1.2,0.3h-0.1c-1.5-0.1-2.7-1.3-2.7-2.8
	c0-0.2,0-0.5,0.1-0.7c0.1-0.2,0.1-0.5,0.3-0.7c0.5-0.9,1.4-1.5,2.5-1.4C105.2,71.1,106.4,72.3,106.4,73.9
	C106.4,73.9,106.4,73.9,106.4,73.9z"/>
<polyline class="st8" points="79.7,74.8 79.7,75.5 79.7,75.7 "/>
<polyline class="st8" points="79.7,74.8 79.7,75.5 79.7,75.7 "/>
<path class="st1" d="M66.2,76.7c0.1,0.3,0.1,0.6,0.1,0.9c0,3.1-2.5,5.6-5.6,5.6c-3.1,0-5.6-2.5-5.6-5.6c0-3.1,2.5-5.6,5.6-5.6
	c1,0,1.9,0.2,2.7,0.7c0.7-1.4,2.3-2,3.7-1.3s2,2.3,1.3,3.7C68,76,67.2,76.6,66.2,76.7L66.2,76.7z"/>
<path class="st1" d="M47,64c-2.3,2.3-3.9,5-4.8,8.1c-0.1,0.4-0.2,0.9-0.3,1.3c-0.2,0.9-0.3,1.9-0.4,2.8c0,0.4,0,0.9,0,1.3
	c0,1.1,0.1,2.2,0.3,3.3l-1.1-0.5c-0.1,0.6-0.1,1.3-0.1,1.9v18.4l-5.4-2.3c-1.3-0.5-2.3-1.6-2.8-2.8l0,0c-0.5-1.3-0.5-2.7,0-4
	l2.8-6.6l1.4-3.2l1.1-2.6l2.4,1.1l0.3,0.1v-2c0-0.2,0-0.4,0-0.7c0-0.1,0-0.3,0-0.4l0,0c0-0.3,0-0.6,0.1-0.9l0,0c0-0.1,0-0.2,0-0.3
	s0.1-0.4,0.1-0.6s0-0.2,0.1-0.3c0,0,0,0,0-0.1c0-0.3,0.1-0.5,0.2-0.8V74c0.1-0.3,0.2-0.6,0.2-0.9C42.1,69.6,44.2,66.4,47,64z"/>
<polygon class="st1" points="62.4,59.2 62,59.2 62.1,59 "/>
<path class="st1" d="M79.7,74.8v0.8h-0.1c0,0,0-0.1,0-0.1l0,0C79.6,75.3,79.6,75,79.7,74.8z"/>
<path class="st9" d="M143.9,69.4l-20.1,8.7l-2.2,0.9l-1.9,0.8l-0.8,0.4v-2c0-1.8-0.2-3.5-0.7-5.2c0,0,0,0,0-0.1
	c-1-3.5-3-6.7-5.8-9.1l0,0c-3.6-3.6-8.5-5.6-13.6-5.6h-0.9c-0.3,0-0.6,0-0.9,0.1c-8.3,0.7-15.1,6.6-17,14.7h-0.3V2.4
	c1.6,0.1,3.1,0.8,4.3,2l24.4,24.4l0.6-0.3l4.1,4.1l0.2,0.3c0.1,0.2,0.3,0.4,0.4,0.6l0,0c0.3,0.7,0.5,1.5,0.3,2.2c0,0,0,0,0,0.1
	c0,0.1,0,0.2-0.1,0.3c0,0.1,0,0.2-0.1,0.3c0,0.1-0.1,0.2-0.1,0.3c0,0.1-0.1,0.2-0.1,0.3c-0.2,0.6-0.5,1.2-0.9,1.7l-0.2,0.3
	c-0.2,0.3-0.4,0.7-0.7,1l-0.2,0.3l16.1-17.9c1.1,0.5,2,1.5,2.5,2.6l16.3,37.6C147.7,65.3,146.5,68.3,143.9,69.4z"/>
<path class="st1" d="M79.7,2.4v70.7h-0.3c-1.9-8.1-8.7-14-17-14.7c-0.3,0-0.6-0.1-0.9-0.1h-0.8c-5.1,0-10,2-13.6,5.6l0,0
	c-2.8,2.4-4.8,5.6-5.8,9.1c-0.1,0.3-0.2,0.6-0.2,0.9v0.2c-0.1,0.3-0.1,0.5-0.2,0.8c0,0,0,0,0,0.1c0,0.1,0,0.2-0.1,0.3
	s-0.1,0.4-0.1,0.6s0,0.2,0,0.3l0,0c0,0.3,0,0.6-0.1,0.9l0,0c0,0.1,0,0.3,0,0.4c0,0.2,0,0.4,0,0.7v2l-0.3-0.1l-2.4-1.1l-2.2-0.9
	l-20.1-8.7c-2.6-1.2-3.8-4.2-2.7-6.8L29,25c0.6-1.3,1.7-2.3,3-2.8l14.8,16.9c-0.1-0.2-0.2-0.3-0.3-0.5l-0.3-0.5
	c-0.1-0.1-0.1-0.3-0.2-0.4l-0.1-0.2v-0.1l-0.1-0.3V37c0,0,0,0,0-0.1c0,0,0-0.1,0-0.1l0,0c0-0.1-0.1-0.1-0.1-0.2l0,0v-0.1l0,0
	c0-0.1-0.1-0.3-0.1-0.4l0,0c-0.1-0.2-0.2-0.3-0.3-0.5c0-0.2,0-0.3,0-0.5c0-0.9,0.3-1.8,1-2.4l4-4l0.2,0.1l0.4,0.2L75.4,4.4
	C76.5,3.3,78.1,2.5,79.7,2.4z"/>
<path class="st1" d="M47,64c-2.3,2.3-3.9,5-4.8,8.1c-0.1,0.4-0.2,0.9-0.3,1.3c-0.2,0.9-0.3,1.9-0.4,2.8c0,0.4,0,0.9,0,1.3
	c0,1.1,0.1,2.2,0.3,3.3l-1.1-0.5h-0.1v-2c0-0.2,0-0.4,0-0.7c0-0.1,0-0.3,0-0.4l0,0c0-0.3,0-0.6,0.1-0.9l0,0c0-0.1,0-0.2,0-0.3
	s0.1-0.4,0.1-0.6s0-0.2,0.1-0.3c0,0,0,0,0-0.1c0-0.3,0.1-0.5,0.2-0.8V74c0.1-0.3,0.2-0.6,0.2-0.9C42.2,69.6,44.2,66.4,47,64z"/>
<path class="st2" d="M41.4,77.5c0,1.1,0.1,2.2,0.3,3.3l-1.1-0.5c-0.1,0.6-0.1,1.3-0.1,1.9V92h-0.3c-1.8,0-3.4-1.8-4.3-4.5l0,0
	c-0.3-0.8-0.5-1.7-0.6-2.5c-0.1-0.8-0.2-1.7-0.2-2.5c0-0.5,0-1,0.1-1.4c0.1-1,0.2-1.9,0.5-2.8l2.2,0.9l2.4,1.1l0.3,0.1v-2
	c0-0.2,0-0.4,0-0.7c0-0.1,0-0.3,0-0.4l0,0c0-0.3,0-0.6,0.1-0.9l0,0c0-0.1,0-0.2,0-0.3s0.1-0.4,0.1-0.6s0-0.2,0.1-0.3c0,0,0,0,0-0.1
	c0-0.3,0.1-0.5,0.2-0.8V74c0.1-0.3,0.2-0.6,0.2-0.9c0.2,0.1,0.3,0.1,0.4,0.2l0.2,0.1c-0.2,0.9-0.3,1.9-0.4,2.8
	C41.5,76.7,41.4,77.1,41.4,77.5z"/>
<path class="st4" d="M79.7,80.3v57.2h-20c-10.5,0-19.1-8.6-19.1-19.1V82.2c0-0.7,0-1.3,0.1-1.9l1.1,0.5c0.4,2.5,1.3,4.9,2.7,7l0,0
	c5.6,9,17.5,11.7,26.5,6C75.7,90.9,78.9,85.9,79.7,80.3L79.7,80.3z"/>
<path class="st4" d="M66.2,76.7c0.1,0.3,0.1,0.6,0.1,0.9c0,3.1-2.5,5.6-5.6,5.6c-3.1,0-5.6-2.5-5.6-5.6c0-3.1,2.5-5.6,5.6-5.6
	c1,0,1.9,0.2,2.7,0.7c0.7-1.4,2.3-2,3.7-1.3s2,2.3,1.3,3.7C68,76,67.2,76.6,66.2,76.7L66.2,76.7z"/>
<path class="st4" d="M47,64c-2.3,2.3-3.9,5-4.8,8.1c-0.1,0.4-0.2,0.9-0.3,1.3c-0.2,0.9-0.3,1.9-0.4,2.8c0,0.4,0,0.9,0,1.3
	c0,1.1,0.1,2.2,0.3,3.3l-1.1-0.5c-0.1,0.6-0.1,1.3-0.1,1.9v-3.9c0-0.2,0-0.4,0-0.7c0-0.1,0-0.3,0-0.4l0,0c0-0.3,0-0.6,0.1-0.9l0,0
	c0-0.1,0-0.2,0-0.3s0.1-0.4,0.1-0.6s0-0.2,0.1-0.3c0,0,0,0,0-0.1c0-0.3,0.1-0.5,0.2-0.8V74c0.1-0.3,0.2-0.6,0.2-0.9
	C42.2,69.6,44.2,66.4,47,64z"/>
<path class="st4" d="M79.7,74.8v0.8h-0.1c0,0,0-0.1,0-0.1l0,0C79.6,75.3,79.6,75,79.7,74.8z"/>
<path class="st5" d="M117.5,73.8L117.5,73.8c0-0.1-0.1-0.2-0.1-0.3h0.1c-0.3-1.4-0.8-2.7-1.4-4c-0.9-2-2.2-3.8-3.8-5.4l0,0
	c-3.6-3.6-8.5-5.6-13.6-5.6h-0.9c-0.3,0-0.6,0-0.9,0.1c-8.3,0.7-15.1,6.6-17,14.7c-0.1,0.6-0.2,1.1-0.3,1.7c0,0.2,0.1,0.4,0.1,0.7
	c0,0.1,0,0.1,0,0.2h-0.2c0,0,0-0.1,0-0.1l0,0c0-0.2,0.1-0.4,0.1-0.7c-0.1-0.6-0.2-1.1-0.3-1.7c-1.9-8.1-8.7-14-17-14.7
	c-0.3,0-0.6-0.1-0.9-0.1h-0.8c-5.1,0-10,1.9-13.6,5.5l0,0c-2.3,2.3-3.9,5-4.8,8.1c-0.1,0.4-0.2,0.9-0.3,1.3
	c-0.2,0.9-0.3,1.9-0.4,2.8c0,0.4,0,0.9,0,1.3c0,1.1,0.1,2.2,0.3,3.3c0.4,2.5,1.3,4.9,2.7,7l0,0c5.6,9,17.5,11.7,26.5,6
	c4.8-3,8-8,8.8-13.6c1.5,10.5,11.2,17.8,21.7,16.3c5.6-0.8,10.5-4,13.6-8.8l0,0c1.4-2.1,2.3-4.5,2.7-7c0.2-1.1,0.3-2.2,0.3-3.3
	C118,76.3,117.8,75,117.5,73.8z M62.1,59l0.2,0.2H62L62.1,59z M66.2,76.7c0.1,0.3,0.1,0.6,0.1,0.9c0,3.1-2.5,5.6-5.6,5.6
	c-3.1,0-5.6-2.5-5.6-5.6c0-3.1,2.5-5.6,5.6-5.6c1,0,1.9,0.2,2.7,0.7c0.7-1.4,2.3-2,3.7-1.3s2,2.3,1.3,3.7C68,76,67.2,76.6,66.2,76.7
	L66.2,76.7z M97.2,59l0.1,0.2H97L97.2,59z M104.8,76.4L104.8,76.4c-0.2,0.1-0.4,0.2-0.6,0.2c0.1,0.3,0.1,0.6,0.1,0.9
	c0,3.1-2.5,5.6-5.6,5.6c-3.1,0-5.6-2.5-5.6-5.6c0-3.1,2.5-5.6,5.6-5.6c0,0,0,0,0,0c0.9,0,1.7,0.2,2.5,0.6c0.5-0.9,1.4-1.5,2.5-1.4
	c1.6,0,2.8,1.3,2.8,2.8C106.4,75,105.8,76,104.8,76.4L104.8,76.4z"/>
<path class="st5" d="M66.2,76.7c0.1,0.3,0.1,0.6,0.1,0.9c0,3.1-2.5,5.6-5.6,5.6c-3.1,0-5.6-2.5-5.6-5.6c0-3.1,2.5-5.6,5.6-5.6
	c1,0,1.9,0.2,2.7,0.7c0.7-1.4,2.3-2,3.7-1.3s2,2.3,1.3,3.7C68,76,67.2,76.6,66.2,76.7L66.2,76.7z"/>
<polygon class="st5" points="62.4,59.2 62,59.2 62.1,59 "/>
<path class="st5" d="M79.7,74.8v0.8h-0.1c0,0,0-0.1,0-0.1l0,0C79.6,75.3,79.6,75,79.7,74.8z"/>
<path class="st5" d="M79.7,74.8v0.8h-0.1c0,0,0-0.1,0-0.1l0,0C79.6,75.3,79.6,75,79.7,74.8z"/>
<path class="st6" d="M66.3,77.5c0,3.1-2.5,5.7-5.6,5.8c-3.1,0-5.7-2.5-5.8-5.6c0-3.1,2.5-5.7,5.6-5.8c2.8,0,5.2,2,5.7,4.7
	C66.3,76.9,66.3,77.2,66.3,77.5z"/>
<circle class="st7" cx="60.7" cy="77.6" r="4.9"/>
<path class="st5" d="M68.7,73.9c0,1.4-1.1,2.6-2.5,2.8h-0.3c-0.1,0-0.3,0-0.4,0c-1.4-0.2-2.4-1.4-2.4-2.8c0-0.2,0-0.4,0.1-0.6
	c0-0.2,0.1-0.5,0.2-0.7c0.7-1.4,2.3-2,3.7-1.3C68.1,71.8,68.8,72.8,68.7,73.9L68.7,73.9z"/>
<polyline class="st8" points="79.7,75.7 79.7,75.5 79.7,74.8 "/>
<polyline class="st8" points="79.7,75.7 79.7,75.5 79.7,74.8 "/>
<path class="st2" d="M75.7,131.8c0,0,10.4-3.6,11.8-1L75.7,131.8z"/>
<path class="st0" d="M50.4,28.5c2.1-2.6,4.4-5.1,6.6-7.6s4.5-5,6.8-7.4c2.3-2.4,4.6-4.9,6.9-7.3l3.5-3.6c1.4-1.5,3.3-2.4,5.4-2.6
	h0.2c2,0.2,3.9,1.1,5.3,2.6l3.5,3.6c2.3,2.4,4.7,4.8,6.9,7.3s4.6,4.9,6.8,7.4s4.5,5,6.6,7.6c-2.6-2.1-5.1-4.4-7.6-6.6
	s-5-4.5-7.4-6.8s-4.9-4.6-7.3-6.9l-3.6-3.5c-0.9-1-2.2-1.6-3.5-1.7h0.2c-1.3,0.1-2.6,0.7-3.5,1.7l-3.6,3.5c-2.4,2.3-4.8,4.7-7.3,6.9
	c-2.5,2.3-4.9,4.6-7.4,6.8S53,26.4,50.4,28.5z"/>
<line class="st8" x1="50.7" y1="43.5" x2="46.9" y2="39.1"/>
<path class="st9" d="M46.9,39.1L32,22.2c1.3-0.5,2.7-0.4,3.9,0.1l14.4,6.2l-4,4C44.6,34.3,45.4,36.8,46.9,39.1z"/>
<path class="st1" d="M111.7,40.3c2-2.5,3.5-5.7,1.4-7.7l-4.1-4.1l0.2-0.1l14.2-6.2c1.4-0.6,3-0.6,4.4,0.1L111.7,40.3z"/>
<path class="st0" d="M49.5,42.2c-1.9-1.5-3.4-3.5-4.3-5.8c-0.2-0.6-0.3-1.3-0.3-1.9c0.1-0.7,0.3-1.4,0.7-1.9
	c0.4-0.6,0.8-0.9,1.2-1.4l1.2-1.3c3.2-3.5,6.5-7,9.8-10.4c3.3-3.5,6.6-6.9,9.9-10.3l5-5.1l1.3-1.3c0.5-0.5,1-1,1.5-1.4
	c1.2-0.8,2.6-1.3,4.1-1.5h0.2c1.5,0.1,2.9,0.6,4.1,1.5c0.6,0.4,1.1,0.9,1.5,1.4l1.3,1.3l5,5.1c3.3,3.4,6.7,6.8,9.9,10.3
	s6.6,6.9,9.8,10.4l1.2,1.3c0.4,0.5,0.8,0.8,1.2,1.4c0.4,0.6,0.7,1.2,0.7,1.9c0,0.7-0.1,1.3-0.3,1.9c-0.9,2.3-2.4,4.2-4.3,5.8
	c0.8-0.9,1.5-1.8,2.1-2.8c0.6-1,1.1-2,1.4-3.2c0.3-1,0.1-2.1-0.6-2.9c-0.3-0.3-0.8-0.8-1.2-1.2l-1.3-1.2c-3.5-3.2-7-6.5-10.4-9.8
	c-3.5-3.3-6.9-6.6-10.3-9.9l-5.1-5l-1.3-1.3c-0.3-0.4-0.7-0.7-1.1-1c-0.8-0.5-1.7-0.8-2.6-0.9h0.2c-0.9,0.1-1.8,0.4-2.6,0.9
	c-0.4,0.3-0.8,0.6-1.1,1l-1.3,1.3l-5.1,5c-3.4,3.3-6.8,6.7-10.3,9.9s-6.9,6.5-10.4,9.8l-1.3,1.2c-0.4,0.4-0.9,0.8-1.2,1.2
	c-0.7,0.8-0.9,2-0.6,3c0.3,1.1,0.8,2.2,1.4,3.2C48,40.4,48.7,41.4,49.5,42.2z"/>
<path class="st10" d="M91.9,116.2c0.2,1.1-0.1,2.2-0.9,3c-0.7,0.8-1.6,1.4-2.5,1.8c-0.9,0.4-1.8,0.8-2.8,1c-0.9,0.2-1.9,0.4-2.8,0.5
	c-0.9,0.1-1.9,0.1-2.8,0.1c-0.9,0-1.9-0.1-2.8-0.2c-0.9-0.1-1.9-0.3-2.8-0.5c-0.5-0.1-0.9-0.2-1.4-0.4l-0.7-0.2l-0.3-0.1l-0.2-0.1
	h-0.1l0,0l0,0c0.1,0,0-0.4,0-0.2c0.1,0,0.1,0,0.1,0.1c0,0.1,0,0.1-0.1,0.1c0,0.2-0.1-0.2,0-0.2h0.3h0.3h0.7h1.4c0.9,0,1.8,0,2.7,0
	c1.8,0,3.6-0.1,5.4-0.3c1.8-0.1,3.6-0.5,5.3-1c0.9-0.3,1.7-0.7,2.4-1.2c0.7-0.5,1.2-1.3,1.4-2.2c0-0.1,0.1-0.1,0.1-0.1
	C92,116.1,92,116.1,91.9,116.2L91.9,116.2z"/>
<path class="st11" d="M124.8,179.5v46.6H35.1v-46.6c0-11.7,8.9-21.5,20.6-22.6l0,0c0.4,0,0.8-0.1,1.1-0.1h0.9h44.3
	c0.1,0,0.3,0,0.4,0l0,0c0.1,0,0.3,0,0.4,0l0,0C115.1,157.4,124.7,167.4,124.8,179.5z"/>
<path class="st12" d="M102.7,149.7c0,4.2,3.3,7.6-2.7,7.6H58.1c-6,0-2.7-3.4-2.7-7.6v-4.2c0-4.2-3.3-7.6,2.7-7.6h41.8
	c6,0,2.7,3.4,2.7,7.6V149.7z"/>
<path class="st13" d="M104.5,149.4c0,4.2,3.3,7.6-2.7,7.6H60c-6,0-2.7-3.4-2.7-7.6v-4.2c0-4.2-3.3-7.6,2.7-7.6h41.8
	c6,0,2.7,3.4,2.7,7.6V149.4z"/>
<path class="st12" d="M95.4,145.1l9.1-0.2l-0.2,0.2c0-0.9,0.1-1.7,0.3-2.6c0.2-0.8,0.4-1.7,0.5-2.5c0.1-0.4,0-0.7-0.1-1.1
	c-0.2-0.3-0.5-0.5-0.8-0.6c-0.8-0.2-1.6-0.2-2.4-0.1l0,0c-7,0.1-13.9,0.1-20.9,0.1c-7,0-13.9,0-20.9,0l0,0c-0.8-0.1-1.6-0.1-2.4,0.1
	c-0.3,0.1-0.6,0.3-0.7,0.5c-0.1,0.3-0.2,0.7-0.1,1c0.1,0.8,0.3,1.6,0.5,2.4c0.2,0.8,0.3,1.7,0.3,2.6l0,0l0,0l-0.7,6.8l-0.2-0.3
	l12.6,0.2l-12.6,0.3h-0.3v-0.3l0.6-6.8l0,0c0-0.8-0.1-1.6-0.3-2.4c-0.2-0.8-0.4-1.6-0.6-2.5c-0.1-0.5,0-1,0.1-1.5
	c0.2-0.5,0.7-0.9,1.2-1c0.9-0.2,1.8-0.3,2.7-0.2l0,0c7,0,13.9-0.1,20.9,0c7,0.1,13.9,0,20.9,0.1l0,0c0.9-0.1,1.8,0,2.6,0.2
	c0.5,0.1,0.9,0.5,1.1,0.9c0.2,0.4,0.2,0.9,0.1,1.4c-0.1,0.9-0.4,1.7-0.6,2.5c-0.2,0.8-0.3,1.6-0.4,2.5v0.2h-0.2L95.4,145.1z"/>
<polygon class="st14" points="107.4,226.1 108.4,175 109.4,226.1 "/>
<polygon class="st14" points="49.5,226.1 50.5,175 51.5,226.1 "/>
<path class="st12" d="M73.5,190.8c-2.4,3-17.8-4.2-17.8-4.2V157h15.3C71.1,157,74.6,189.5,73.5,190.8z"/>
<path class="st13" d="M72.7,190.5c-0.4,3.4-16.1-4.5-16.1-4.5l0.3-29.5l13.3,1.2C70.2,157.7,73.6,183.3,72.7,190.5z"/>
<path class="st2" d="M49.7,225.5c-0.1,0.2-0.2,0.4-0.3,0.6c-0.5,1.1-1.5,1.9-2.7,2.3c-1.2,0.3-2.5,0.1-3.5-0.5
	c-0.8-0.5-1.5-1.1-2-1.8c-0.2-0.2-0.3-0.4-0.4-0.6c-0.6-0.9-1-1.8-1.3-2.9c-1.2-4,0.2-7.9,3.1-8.8l0.3-0.1h0.2l0,0
	c2.7-0.4,5.7,2.1,6.8,5.9C50.5,221.6,50.5,223.7,49.7,225.5z"/>
<path class="st2" d="M43.3,215v21.3c0,3-2.4,5.4-5.5,5.5H36c-1,0-2-0.3-2.9-0.8c-0.4-0.3-0.8-0.6-1.2-1c-0.9-1-1.5-2.3-1.5-3.7V215
	c0-0.8,0.2-1.6,0.5-2.3c0.1-0.2,0.2-0.4,0.3-0.5c0.8-1.4,2.2-2.3,3.8-2.5c0.3-0.1,0.6-0.1,0.9-0.1h1.9c2.5,0,4.7,1.7,5.3,4.2l0,0
	C43.3,214.2,43.3,214.6,43.3,215z"/>
<path class="st2" d="M33.1,216.2V242c0,3-2.4,5.4-5.5,5.5h-1.9c-1,0-2-0.3-2.9-0.8l-0.1-0.1c-1.5-1-2.4-2.7-2.5-4.5v-25.8
	c0-0.8,0.2-1.6,0.5-2.3c0.1-0.2,0.2-0.4,0.3-0.5c1-1.6,2.7-2.6,4.6-2.6h1.9c1.4,0,2.7,0.5,3.7,1.4c0.1,0.1,0.2,0.2,0.3,0.3
	C32.6,213.5,33.1,214.8,33.1,216.2z"/>
<path class="st2" d="M23,217.4v27.9c0,0.4,0,0.8-0.2,1.2c0,0.2-0.1,0.4-0.2,0.6c-0.8,2.1-2.8,3.6-5.1,3.6h-1.9c-3,0-5.4-2.4-5.5-5.5
	v-27.9c0-0.6,0.1-1.2,0.3-1.7c0.1-0.2,0.1-0.4,0.2-0.6c0.9-1.9,2.8-3.1,4.9-3.1h1.9c1.4,0,2.7,0.5,3.7,1.4c0.1,0.1,0.2,0.2,0.3,0.3
	C22.4,214.7,23,216,23,217.4z"/>
<path class="st2" d="M12.8,219.3v17.8c0,1.9-1,3.7-2.6,4.6c-0.9,0.5-1.8,0.8-2.8,0.8H5.5c-3,0-5.4-2.5-5.4-5.5v-17.8
	c0-3,2.5-5.4,5.5-5.5h1.9c1.2,0,2.4,0.4,3.4,1.2c0.1,0.1,0.2,0.2,0.3,0.2C12.2,216.4,12.8,217.8,12.8,219.3z"/>
<path class="st3" d="M43.3,215.8v21.3c0,3-2.5,5.4-5.5,5.4H36c-1,0-2-0.3-2.9-0.8c-0.4-0.3-0.8-0.6-1.2-1c-0.9-1-1.5-2.3-1.5-3.7
	v-21.3c0-1,0.3-2,0.8-2.8c0.1-0.2,0.2-0.3,0.3-0.5c0.8-1.1,2.1-1.8,3.5-2.1c0.3-0.1,0.6-0.1,0.9-0.1h1.9c2.2,0,4.2,1.4,5.1,3.4
	C43.2,214.4,43.3,215.1,43.3,215.8z"/>
<path class="st3" d="M33.1,217v25.8c0,3-2.4,5.4-5.5,5.5h-1.9c-1.1,0-2.1-0.3-3-0.9l-0.2-0.1c-1.4-1-2.2-2.7-2.2-4.4V217
	c0-1,0.3-2,0.8-2.8c0.1-0.2,0.2-0.3,0.3-0.5c1-1.4,2.6-2.1,4.3-2.1h1.9c1.2,0,2.4,0.4,3.4,1.2c0.1,0.1,0.2,0.2,0.3,0.2
	C32.5,214,33.1,215.5,33.1,217z"/>
<path class="st3" d="M23,218.2v27.9c0,0.2,0,0.4,0,0.5c0,0.2-0.1,0.5-0.1,0.7c-0.6,2.5-2.8,4.2-5.3,4.2h-1.9c-3,0-5.4-2.4-5.5-5.5
	v-27.9c0-0.8,0.2-1.6,0.5-2.3c0.1-0.2,0.2-0.4,0.3-0.5c1-1.6,2.7-2.6,4.6-2.6h1.9c1.2,0,2.4,0.4,3.4,1.2c0.1,0.1,0.2,0.2,0.3,0.2
	C22.3,215.2,23,216.6,23,218.2z"/>
<path class="st3" d="M12.8,220.1v17.8c0,1.9-1,3.7-2.6,4.6c-0.9,0.5-1.8,0.8-2.8,0.8H5.5c-3,0-5.4-2.5-5.4-5.5v-17.8
	c0-3,2.4-5.4,5.5-5.5h1.9c1.1,0,2.2,0.3,3.1,1c0.1,0,0.2,0.1,0.2,0.2C12,216.9,12.8,218.5,12.8,220.1z"/>
<path class="st2" d="M10.9,217.9c0.2,3.9,0.2,7.7,0.2,11.6s0,7.7-0.2,11.6c-0.2-3.9-0.2-7.7-0.2-11.6S10.7,221.8,10.9,217.9z"/>
<path class="st2" d="M21.8,217.9c0.1,2.2,0.2,4.4,0.2,6.6l0.1,6.6l0,6.6c0,2.2-0.1,4.4-0.2,6.6c-0.1-2.2-0.2-4.4-0.2-6.6l-0.1-6.6
	l0.1-6.6C21.7,222.3,21.7,220.1,21.8,217.9z"/>
<path class="st2" d="M32,215.1c0.1,2.2,0.2,4.4,0.2,6.6l0.1,6.6l-0.1,6.6c0,2.2-0.1,4.4-0.2,6.6c-0.1-2.2-0.2-4.4-0.2-6.6l-0.1-6.6
	l0.1-6.6C31.8,219.5,31.9,217.3,32,215.1z"/>
<path class="st2" d="M118.3,222.7c-0.3,1-0.7,2-1.3,2.9c-0.1,0.2-0.3,0.4-0.4,0.6c-0.6,0.7-1.2,1.3-2,1.8c-2,1.3-4.6,0.7-5.9-1.2
	c-0.1-0.2-0.2-0.3-0.3-0.5c-0.1-0.2-0.2-0.4-0.3-0.6c-0.7-1.9-0.8-4-0.2-5.9c0.2-0.5,0.3-1,0.6-1.5c1.4-2.9,3.9-4.7,6.2-4.3l0,0h0.2
	l0.3,0.1C118.1,214.7,119.5,218.6,118.3,222.7z"/>
<path class="st2" d="M127.3,215v21.3c0,1.4-0.5,2.7-1.4,3.7c-0.3,0.4-0.7,0.7-1.1,1c-0.9,0.5-1.8,0.8-2.9,0.8h-1.9
	c-3,0-5.4-2.5-5.4-5.5v-21.3c0-0.4,0-0.9,0.1-1.3l0,0c0.6-2.4,2.8-4.2,5.3-4.2h1.9c1.1,0,2.1,0.3,3,0.9c0.7,0.4,1.3,1,1.7,1.7
	c0.1,0.2,0.2,0.3,0.3,0.5C127.1,213.5,127.3,214.3,127.3,215z"/>
<path class="st2" d="M137.4,216.2V242c0,1.8-0.9,3.5-2.4,4.5l-0.1,0.1c-0.9,0.5-1.9,0.8-2.9,0.8h-1.9c-3,0-5.4-2.4-5.5-5.5v-25.8
	c0-0.3,0-0.7,0.1-1c0.2-1,0.7-1.9,1.4-2.7c0.1-0.1,0.2-0.2,0.3-0.3c1-0.9,2.3-1.4,3.7-1.4h1.9c1.9,0,3.7,1,4.6,2.6
	c0.1,0.2,0.2,0.3,0.3,0.5C137.3,214.6,137.4,215.4,137.4,216.2z"/>
<path class="st2" d="M147.6,217.4v27.9c0,3-2.4,5.4-5.5,5.5h-1.9c-2.3,0-4.3-1.4-5.1-3.6c-0.1-0.2-0.2-0.4-0.2-0.6
	c-0.1-0.4-0.2-0.8-0.1-1.2v-27.9c0-1.4,0.5-2.7,1.5-3.7c0.1-0.1,0.2-0.2,0.3-0.3c1-0.9,2.3-1.4,3.7-1.4h1.9c2.1,0,4,1.2,4.9,3.1
	c0.1,0.2,0.2,0.4,0.2,0.6C147.5,216.2,147.6,216.8,147.6,217.4z"/>
<path class="st2" d="M157.8,219.3v17.8c0,3-2.4,5.5-5.5,5.5h-1.9c-1,0-2-0.3-2.9-0.8c-1.6-1-2.6-2.8-2.6-4.6v-17.8
	c0-1.5,0.7-3,1.8-4c0.1-0.1,0.2-0.2,0.3-0.2c1-0.8,2.2-1.2,3.4-1.2h1.9C155.4,213.9,157.8,216.3,157.8,219.3z"/>
<path class="st3" d="M127.3,215.8v21.3c0,1.4-0.5,2.7-1.4,3.7c-0.3,0.4-0.7,0.7-1.1,1c-0.9,0.5-1.8,0.8-2.9,0.8h-1.9
	c-3,0-5.4-2.5-5.4-5.5v-21.3c0-0.7,0.1-1.4,0.4-2c0.8-2.1,2.8-3.4,5.1-3.4h1.9c1.7,0,3.3,0.8,4.3,2.1c0.1,0.1,0.2,0.3,0.3,0.5
	C127,213.9,127.3,214.8,127.3,215.8z"/>
<path class="st3" d="M137.4,217v25.8c0,1.7-0.8,3.4-2.2,4.4l-0.2,0.1c-0.9,0.6-1.9,0.9-3,0.9h-1.9c-3,0-5.4-2.4-5.5-5.5V217
	c0-0.3,0-0.7,0.1-1c0.2-1.2,0.8-2.2,1.7-3c0.1-0.1,0.2-0.2,0.3-0.2c1-0.8,2.2-1.2,3.4-1.2h1.9c1.7,0,3.3,0.8,4.3,2.1
	c0.1,0.1,0.2,0.3,0.3,0.5C137.2,215,137.4,216,137.4,217z"/>
<path class="st3" d="M147.6,218.2v27.9c0,3-2.4,5.4-5.5,5.5h-1.9c-2.5,0-4.7-1.8-5.3-4.2c-0.1-0.2-0.1-0.5-0.1-0.7
	c0-0.2,0-0.4,0-0.5v-27.9c0-1.5,0.6-3,1.8-4c0.1-0.1,0.2-0.2,0.3-0.2c1-0.8,2.2-1.2,3.4-1.2h1.9c1.9,0,3.7,1,4.6,2.6
	c0.1,0.2,0.2,0.3,0.3,0.5C147.5,216.6,147.6,217.4,147.6,218.2z"/>
<path class="st3" d="M157.8,220.1v17.8c0,3-2.4,5.5-5.5,5.5h-1.9c-1,0-2-0.3-2.9-0.8c-1.6-1-2.6-2.7-2.6-4.6v-17.8
	c0-1.7,0.8-3.2,2.1-4.3l0.2-0.2c0.9-0.7,2-1,3.1-1h1.9C155.3,214.7,157.8,217.1,157.8,220.1z"/>
<path class="st2" d="M146.9,217.9c0.2,3.9,0.2,7.7,0.2,11.6s0,7.7-0.2,11.6c-0.2-3.9-0.2-7.7-0.2-11.6S146.7,221.8,146.9,217.9z"/>
<path class="st2" d="M136,217.9c0.1,2.2,0.2,4.4,0.2,6.6l0.1,6.6l-0.1,6.6c0,2.2-0.1,4.4-0.2,6.6c-0.1-2.2-0.2-4.4-0.2-6.6l-0.1-6.6
	l0.1-6.6C135.8,222.3,135.9,220.1,136,217.9z"/>
<path class="st2" d="M125.8,215.1c0.1,2.2,0.2,4.4,0.2,6.6l0.1,6.6L126,235c0,2.2-0.1,4.4-0.2,6.6c-0.1-2.2-0.2-4.4-0.2-6.6
	l-0.1-6.6l0.1-6.6C125.7,219.5,125.7,217.3,125.8,215.1z"/>
</svg>
