<?xml version="1.0" encoding="utf-8"?>
<!-- Generator: Adobe Illustrator 21.0.0, SVG Export Plug-In . SVG Version: 6.00 Build 0)  -->
<svg version="1.1" id="Layer_1" xmlns="http://www.w3.org/2000/svg" xmlns:xlink="http://www.w3.org/1999/xlink" x="0px" y="0px"
	 viewBox="0 0 506 406.4" style="enable-background:new 0 0 506 406.4;" xml:space="preserve">
<style type="text/css">
	.st0{fill:#E6E7E8;}
	.st1{opacity:0.1;fill:#818485;enable-background:new    ;}
	.st2{fill:#424143;}
	.st3{fill:#15C1E8;}
	.st4{opacity:0.1;fill:#FFFFFF;enable-background:new    ;}
	.st5{clip-path:url(#SVGID_2_);}
	.st6{fill:#333333;}
</style>
<title>mac_dada</title>
<path class="st0" d="M340.6,406.3l-87.2-0.4h-0.8l-87.2,0.4c0,0,38.5-0.8,27.7-53.8H313C302.2,405.6,340.6,406.3,340.6,406.3z"/>
<path class="st1" d="M253,405.9h0.8l87.2,0.4c0,0-38.5-0.8-27.7-53.8H193.5"/>
<path class="st2" d="M25.8,0h454.4C494.5,0,506,11.6,506,25.8V329c0,14.3-11.6,25.8-25.8,25.8H25.8C11.6,354.8,0,343.2,0,329V25.8
	C0,11.6,11.6,0,25.8,0z"/>
<rect x="22.3" y="19" class="st3" width="461.5" height="264.7"/>
<path d="M213,171.2v-22.3c2.7-0.6,3.7-0.3,4.3,1.3c1.7-1.6,3.8-1.9,6-1.9c2.2,0,4.2,0.7,5.4,2.9l1.9-1.3c3.8-2.8,9.1-2,11.9,1.7
	c0,0,0,0,0,0c0.6,0.7,0.9,1.6,1,2.5c0.1,5.6,0,11.2,0,17h-4v-4.7c0-3.3-0.2-6.7,0-10c0.2-3.9-3.4-4.9-6.2-3.7
	c-1.9,0.6-3.2,2.4-2.9,4.4c0.2,4.1,0,8.2,0.1,12.3c0,1.3-0.4,1.9-1.7,1.7c-0.4,0-0.8,0-1.1,0c-1.2,0.1-1.5-0.4-1.4-1.5
	c0-4.3-0.1-8.6,0.1-12.9c0.1-2.7-1.6-4.9-4.5-4.3c-1,0.2-2,0.5-2.9,1c-1.2,0.7-1.8,2-1.6,3.4c0.1,4.1,0,8.3,0.1,12.5
	c0,1.5-0.4,2.1-1.9,1.9C214.6,171.2,213.8,171.2,213,171.2z"/>
<path d="M280.9,161.8c0,1.1,0,1.8,0,2.6c0,1.6,1.3,2.8,2.9,2.9c1.1,0,2.2-0.1,3.2,0c2,0.4,4-0.7,4.6-2.7l3.8,1.3
	c-0.7,3-3.2,5.3-6.3,5.6c-2,0.1-4.1,0.1-6.1,0c-3-0.2-6.5-3.2-6.6-6.5s-0.2-6.7,0-10c0.3-3.7,3.5-6.5,7.2-6.5c1.6,0,3.1,0.1,4.7,0
	c3.3-0.2,7.5,2.7,7.4,7.1c0,1.6-0.1,3.1,0,4.7c0.1,1.2-0.5,1.6-1.6,1.6c-3.8-0.1-7.6,0-11.3,0L280.9,161.8z M280.7,157.7h10.5
	c0-0.7,0-1.2,0-1.7c0.1-2.2-1.1-3.5-3.4-3.5c-1.2-0.1-2.4-0.1-3.5,0c-0.9,0.1-1.8,0.5-2.6,1C280.2,154.5,280.6,156.1,280.7,157.7z"
	/>
<path d="M255.1,161.8c0,1.7-0.6,3.3,0.8,4.4c0.7,0.5,1.5,0.9,2.4,1c0.9,0.2,1.9,0,2.9,0.1c2,0.4,4-0.7,4.6-2.7l3.8,1.3
	c-0.7,3.1-3.4,5.4-6.6,5.6c-1.8,0-3.6,0-5.3,0c-3.5,0.1-7.4-3.8-7.1-7.2c0.3-3,0.3-5.9,0-8.9c-0.3-3,3.4-7,6.8-7c1.9,0,3.9,0,5.8,0
	c3.3,0,7.2,3.6,6.8,7.1c-0.1,1.4-0.1,2.9,0,4.4c0.1,1.5-0.3,2-1.9,1.9c-3.7-0.1-7.3,0-11,0L255.1,161.8z M265.5,157.8
	c0-0.6,0.1-1.1,0.1-1.6c0-2.7-1.1-3.8-3.8-3.8c-0.9,0.1-1.8,0.1-2.8,0c-2.9-0.4-5,2.1-3.7,5.3L265.5,157.8z"/>
<path d="M66.2,160.6c0-2.5,0-5.1,0-7.6c-0.1-1.3,0.7-2.6,1.9-3.1c4.3-2.5,8.6-5,12.9-7.5c1.2-0.8,2.7-0.8,3.9,0
	c4.3,2.5,8.7,5,13.1,7.5c1.1,0.5,1.8,1.6,1.7,2.8c0,5.1,0,10.3,0,15.4c0,1.2-0.6,2.3-1.7,2.9c-4.4,2.5-8.8,5.1-13.1,7.6
	c-1.1,0.8-2.6,0.8-3.8,0c-4.3-2.5-8.6-5-12.9-7.4c-1.2-0.6-1.9-1.8-1.9-3.1C66.2,165.6,66.2,163.1,66.2,160.6z M68.1,160.5
	c0,2.4-0.1,4.9,0,7.3c0.1,0.7,0.4,1.4,1,1.9c4.2,2.5,8.4,4.9,12.6,7.2c0.7,0.3,1.6,0.3,2.3,0c4.2-2.4,8.4-4.8,12.6-7.3
	c0.7-0.4,1.1-1.1,1.2-1.9c0.1-4.9,0.1-9.7,0-14.6c0-0.7-0.4-1.4-1-1.9c-4.2-2.5-8.4-4.9-12.6-7.2c-0.7-0.3-1.6-0.3-2.4,0
	c-4.2,2.4-8.4,4.8-12.6,7.3c-0.6,0.5-1,1.1-1.1,1.9C68,155.7,68,158.1,68.1,160.5L68.1,160.5z"/>
<path d="M300.7,152.6v-3.8h3.4v-8.3h4.3v8.2h6.6c0.2,0.3,0.2,0.4,0.3,0.5c0.2,3.5,0.2,3.5-3.3,3.5h-3.4c-0.1,0.6-0.1,1-0.1,1.5
	c0,3.2,0,6.4,0,9.6c-0.1,1.8,1.3,3.2,3,3.3c0.1,0,0.1,0,0.2,0c1.1,0,2.1,0,3.2,0c0.4,4.9,0.6,4.3-3.5,4c-4.4-0.3-7-3.4-7.1-7.9
	c0-3.4,0-6.8,0-10.4L300.7,152.6z"/>
<path d="M358.1,175.2c1.1-1,1.9-0.8,2.7,0.3c0.7,1.3,2.1,1.9,3.6,1.7c1.3-0.1,2.7,0,4,0c2.5,0.2,4.6-1.7,4.8-4.2c0-0.2,0-0.3,0-0.5
	c0-1.2,0-2.5,0-3.9c-0.5,0.5-0.9,0.8-1.3,1.2c-1.1,1.2-2.7,1.8-4.4,1.7c-0.9-0.1-1.8-0.1-2.8,0c-2.5,0.4-4.9-0.9-6.1-3.1
	c-0.6-0.8-0.9-1.8-1-2.8c-0.1-3.7-0.1-7.4,0-11.2c0.2-3.1,2.6-5.6,5.7-6c1.7-0.1,3.3-0.1,5,0c0.9,0.2,1.8,0.5,2.6,1
	c0.8,0.5,1.5,1.1,2.1,1.7c0.9-2.5,0.9-2.5,2.5-2.3c-0.1,1.6-0.3,3.2-0.3,4.8c0,6.3-0.2,12.6,0,18.9c0.1,3.1-3.2,7-6.6,6.7
	c-1.3-0.1-2.6-0.1-3.9,0C361.6,179.5,359.5,177.9,358.1,175.2z M359.4,159.7c0,1.9,0,3.8,0,5.6c0.3,2.1,1.9,3.7,4,3.9
	c1.5,0,2.9,0,4.4,0c2.3-0.1,5.1-3,5.1-5.3c0-2.9,0.1-5.8,0-8.7c-0.1-0.9-0.4-1.7-1-2.4c-2-2.5-4.7-2.9-7.7-2.7
	c-3,0.2-4.8,1.9-4.8,4.8C359.4,156.5,359.4,158.1,359.4,159.7z"/>
<path d="M426.1,171.2l-0.5-2.2c-0.1,0-0.3-0.1-0.3,0c-2.9,3.2-6.7,2.7-10.4,2.5c-2.5-0.2-5.8-3.3-5.2-7.2c0.3-3.2,3-5.7,6.3-5.7
	c3.1,0,6.1,0,9.2,0c0.8-3.6-0.1-6.8-2.5-7.5c-1.7-0.5-3.6-0.1-5.5-0.3c-2.2-0.2-3.3,1.2-4.5,2.8l-1.6-0.6c0.8-2.6,3.3-4.4,6-4.4
	c1.2,0,2.5,0,3.7,0c3.7,0,6.7,2.9,6.8,6.7c0,0,0,0,0,0.1c-0.1,4.6,0.1,9.2,0.2,13.8c0,0.7,0.2,1.5,0.2,2.3L426.1,171.2z
	 M419.9,160.3L419.9,160.3c-1.5,0-3-0.1-4.5,0c-2.3,0.2-3.7,2.1-3.6,4.8c0.1,2.2,1.8,3.9,3.9,4.2c1.3,0,2.7,0,4,0
	c3.1-0.2,5.5-2.6,5.7-5.7c0-0.7,0-1.4,0-2.1c0.1-0.9-0.4-1.2-1.2-1.2C422.7,160.4,421.3,160.3,419.9,160.3z"/>
<path d="M203.4,158.3c0.1-1.5,0.1-2.9,0-4.4c-0.2-1.5-2.4-3.3-3.9-3.3c-1.4,0-2.7,0-4,0c-1.4-0.2-2.8,0.5-3.6,1.7
	c-0.7,1.2-1.5,1.2-2.6,0.3c1.2-2.1,2.6-3.9,5.3-4.1c1.8-0.1,3.7-0.1,5.5,0c3.3,0.3,5.8,3.1,5.7,6.5c0,3.8,0,7.7,0,11.5
	c0,1.5,0.2,3.1,0.4,4.7h-2l-0.6-2.5c-0.5,0.4-0.9,0.7-1.2,1c-1.4,1.3-3.3,1.9-5.2,1.8c-1-0.1-2-0.1-3.1,0c-3,0.3-6.7-3.2-6.4-6.9
	c0.3-3.7,2.7-6.2,6.5-6.2h8.6C203,158.4,203.2,158.4,203.4,158.3z M196,169.7c1.4-0.2,2.8-0.5,4.1-1c3-1.3,3.9-3.8,3.5-7
	c-0.1-1-0.4-1.4-1.5-1.4c-2.6,0-5.2,0.1-7.8,0c-1.8-0.1-3.5,1-4.2,2.7c-0.7,1.6-0.4,3.5,0.8,4.8C192.3,169.5,194,169.6,196,169.7z"
	/>
<path d="M128.9,151v-10.6h2.1v30.7h-1.6l-0.5-2.3c-0.1,0-0.2,0-0.3,0c-2.7,3.3-6.4,3-10,2.6c-2.8-0.3-5.1-3.2-5.2-6
	c0-3.6,0-7.2,0-10.9c0.1-3.3,2.8-6,6.1-6.1h0.5c3.2-0.2,6.3-0.2,8.5,2.9L128.9,151z M115.3,160c0,1.5,0,2.9,0,4.4
	c0,3.3,1.8,5.2,5.1,5.2c0.9,0,1.8,0,2.8,0c3-0.4,5.4-2.8,5.6-5.8c0-2.7-0.1-5.4,0-8.1c0-1.2-0.5-2.3-1.4-3.1
	c-1.9-1.8-4.5-2.7-7.1-2.4c-3.1,0.2-5.1,2-5.1,5.1C115.3,156.8,115.3,158.4,115.3,160L115.3,160z"/>
<path d="M337,151.3v-11h2V171c-2.2,0.9-1.6-1.3-2.1-2.2c-0.2,0-0.3,0-0.4,0.1c-2.6,3-6.1,2.8-9.6,2.5c-2.9-0.4-5.1-2.7-5.4-5.6
	c-0.1-3.9-0.1-7.8,0-11.6c0.2-3.3,2.9-5.8,6.2-5.8c0.9,0,1.7,0.1,2.6,0c2-0.2,3.9,0.5,5.3,1.9C336,150.6,336.3,150.8,337,151.3z
	 M323.4,159.8c0,1.5,0,2.9,0,4.4c0,3.4,1.9,5.3,5.2,5.3c1,0,1.9,0,2.9,0c2.6-0.1,5.4-3.1,5.4-5.6c0-2.8,0.1-5.6,0-8.4
	c-0.1-1-0.5-1.9-1.1-2.7c-1.8-2.2-4.2-2.8-7.1-2.6c-3.3,0.2-5.3,2-5.3,5.4C323.4,156.9,323.4,158.4,323.4,159.8L323.4,159.8z"/>
<path d="M153.4,158.3c0.1-2.5,0.6-5.1-1.9-6.8c-0.6-0.4-1.3-0.7-2-0.8c-1-0.1-1.9,0-2.9-0.1c-2.4-0.2-4.5,0.2-5.7,2.8l-1.7-0.6
	c0.7-2.6,3.1-4.4,5.8-4.4c1.5-0.1,2.9-0.1,4.4,0c3.5,0.1,6.3,2.9,6.2,6.5c0,0.1,0,0.1,0,0.2c0,2.1,0,4.2,0,6.3c0,1.6-0.1,3.2,0,4.8
	c0.1,1.6,0.3,3.2,0.5,4.9h-1.9l-0.5-2.3c-0.1,0-0.3,0-0.3,0c-3,3.3-7,2.8-10.7,2.3c-3.1-0.4-5.3-3.8-4.9-7c0.2-3.3,3-5.9,6.3-5.9
	h8.9C153.1,158.3,153.3,158.3,153.4,158.3z M148,160.3c-1.2,0-2.5,0.1-3.7,0c-1.8-0.2-3.6,1-4.1,2.7c-0.7,1.6-0.4,3.5,0.9,4.8
	c1.7,1.8,6.7,2.2,9.2,0.9c3-1.6,3.7-4,3.4-7.1c-0.1-1-0.4-1.3-1.4-1.3C150.8,160.4,149.4,160.3,148,160.3z"/>
<path d="M178.8,150.8c0-2.8,0.1-5.9,0-8.9c0-1.5,0.5-1.9,2.1-1.4V171c-1.4,0.3-1.4,0.3-2.1-2.1c-0.1,0-0.2,0-0.3,0
	c-2.6,3.2-6.2,2.8-9.7,2.5c-2.8-0.2-5.2-3.2-5.2-6.1c0-3.7,0-7.4-0.1-11.2c0-2.7,2.8-5.6,5.6-5.7c1.6-0.2,3.1-0.2,4.7,0.1
	C175.6,149.1,177.2,149.9,178.8,150.8z M165.3,159.6c0,1.6,0,3.2,0,4.9c-0.1,2.8,2.1,5,4.9,5.1c0.1,0,0.2,0,0.3,0c0.9,0,1.8,0,2.8,0
	c2.7-0.1,5.5-3,5.5-5.7c0-2.8,0.1-5.6-0.1-8.4c-0.1-1-0.5-1.9-1.1-2.7c-1.5-1.8-3.8-2.8-6.1-2.6c-4.7,0.2-6.2,1.6-6.2,6.4
	C165.3,157.5,165.3,158.5,165.3,159.6z"/>
<path d="M404,169.1c0.5,1.6,0,2-1.4,2.1c-3.8,0.2-7-2.6-7.2-6.4c0-0.2,0-0.5,0-0.7c0.2-3.7,0-7.4,0-11.2c0-2.2,0-2.2-2.2-2.3
	c-0.2,0-0.5,0.1-0.6,0c-0.4-0.3-0.6-0.7-0.8-1.1c0-0.2,0.5-0.7,0.9-0.8c2.7-0.3,2.7-0.3,2.7-3.2c0-1.7,0-3.4,0-5.2h2.1v8.2
	c1.9,0,3.6,0,5.3,0c0.6,0,1.5-0.3,1.5,0.9s-0.9,1-1.6,1c-1.4,0-2.7-0.1-4,0.1c-0.5,0.2-0.9,0.6-1.1,1.1c-0.1,4.6-0.1,9.2,0,13.8
	c0,1.6,2,3.5,3.6,3.6C402.1,169.2,403,169.1,404,169.1z"/>
<path d="M437.7,171.2c-1.3,0.5-1.9-0.1-2-1.4c-0.1-1.8-0.2-3.7-0.2-5.5c0-7.2,0-14.4,0-21.7v-2c2-0.5,2.1-0.4,2.2,1.4
	c0,7.5,0,15,0,22.5C437.7,166.6,437.7,168.8,437.7,171.2z"/>
<path d="M347.3,171v-22.2h1.8c0.1,0.4,0.1,0.8,0.1,1.3c0,6.5,0,13,0,19.6C349.3,171.1,348.7,171.4,347.3,171z"/>
<path d="M383.6,171v-22.2h1.8c0,0.6,0.1,1.1,0.1,1.6c0,6.4,0,12.7,0,19.1C385.6,170.9,385.1,171.5,383.6,171z"/>
<path d="M385.9,143.5c-1.1-0.2-2.2-0.1-2.8-0.6c-0.4-0.7-0.4-1.5,0-2.2c0.7-0.5,1.8-0.4,2.8-0.5L385.9,143.5z"/>
<path d="M349.7,140.1v3.3c-1,0-1.9-0.1-2.8-0.5c-0.4-0.7-0.4-1.5,0-2.2C347.5,140.2,348.5,140.3,349.7,140.1z"/>
<path class="st0" d="M506,303.6v25c-0.2,14.1-11.7,25.5-25.8,25.4H25.8C11.7,354,0.2,342.6,0,328.5v-24.9H506z"/>
<rect x="165.7" y="405.4" class="st2" width="174.6" height="0.9"/>
<path class="st4" d="M25.8,0h454.4C494.4,0.1,506,11.6,506,25.8v303.1c0,14.3-11.6,25.8-25.8,25.8"/>
<g>
	<g>
		<defs>
			<path id="SVGID_1_" d="M265.8,324.3v7H265v-5.2l-7.2,7.3v-7.3l-3.5,3.5l-0.8,0.8l-2.4,2.4c-0.1,0.1-0.4,0.1-0.5,0
				c-0.1-0.1-0.1-0.4,0-0.5l2.9-2.9l0.8-0.8l4.2-4.2v7.3L265.8,324.3z M265,332.8h0.8V332H265V332.8z M254.3,325c0,0,0-0.1-0.1-0.1
				c-0.1-0.1-0.4-0.1-0.5,0l-6.7,6.6l0,0v-7.3l-0.7,0.8l0,0l-2.7,2.7l-2.5,2.5l0,0l-1.8,1.9c-0.1,0.1-0.1,0.4,0,0.5
				c0.1,0.1,0.4,0.1,0.5,0l0,0l6.6-6.6l0,0l0,0v7.3l7.9-7.9c0,0,0.1-0.1,0.1-0.2C254.4,325.2,254.4,325.1,254.3,325z"/>
		</defs>
		<use xlink:href="#SVGID_1_"  style="overflow:visible;fill:#333333;"/>
		<clipPath id="SVGID_2_">
			<use xlink:href="#SVGID_1_"  style="overflow:visible;"/>
		</clipPath>
		<g class="st5">
			<rect x="238" y="322.3" class="st6" width="29.1" height="13.4"/>
		</g>
	</g>
</g>
</svg>
